<?xml version="1.0" encoding="UTF-8" standalone="no"?>
<!-- Created with Inkscape (http://www.inkscape.org/) -->

<svg
   width="1920mm"
   height="1080mm"
   viewBox="0 0 1920 1080"
   version="1.1"
   id="svg5"
   inkscape:version="1.1.2 (b8e25be833, 2022-02-05)"
   sodipodi:docname="sparing.svg"
   xmlns:inkscape="http://www.inkscape.org/namespaces/inkscape"
   xmlns:sodipodi="http://sodipodi.sourceforge.net/DTD/sodipodi-0.dtd"
   xmlns="http://www.w3.org/2000/svg"
   xmlns:svg="http://www.w3.org/2000/svg">
  <sodipodi:namedview
     id="namedview7"
     pagecolor="#ffffff"
     bordercolor="#666666"
     borderopacity="1.0"
     inkscape:pageshadow="2"
     inkscape:pageopacity="0.0"
     inkscape:pagecheckerboard="0"
     inkscape:document-units="mm"
     showgrid="false"
     width="1920mm"
     inkscape:zoom="1.6788523"
     inkscape:cx="3644.1561"
     inkscape:cy="1889.0881"
     inkscape:window-width="3840"
     inkscape:window-height="2066"
     inkscape:window-x="-11"
     inkscape:window-y="-11"
     inkscape:window-maximized="1"
     inkscape:current-layer="layer1" />
  <defs
     id="defs2" />
  <g
     inkscape:label="Layer 1"
     inkscape:groupmode="layer"
     id="layer1">
    <path
       style="fill:#000000;stroke:#000000;stroke-width:3.01348;stroke-opacity:0"
       d="m 3561.9283,2413.9622 c -25.0256,-7.0219 -40.9207,-12.9323 -57.5491,-21.3985 -20.6339,-10.5057 -56.379,-35.4235 -68.5459,-47.7832 -11.65,-11.8346 -36.6327,-51.8304 -36.6327,-58.6467 0,-2.2156 3.9252,-9.4471 8.7228,-16.0699 11.944,-16.4883 18.5066,-29.5942 24.6022,-49.1323 2.844,-9.1158 6.533,-16.5741 8.1979,-16.5741 1.6648,0 22.9845,16.2727 47.3772,36.1617 65.0897,53.072 53.1505,48.4989 115.7073,44.3201 79.9162,-5.3383 129.8804,-15.6822 170.9554,-35.3921 32.742,-15.7114 48.5362,-37.7168 65.8876,-91.7986 13.9291,-43.4149 13.2204,-109.0048 -1.9537,-180.8085 -9.6658,-45.7385 -21.9985,-67.8796 -57.8628,-103.8822 -16.8102,-16.8751 -38.3623,-36.7511 -47.8935,-44.169 -23.0709,-17.9556 -60.5075,-67.7381 -68.7072,-91.3657 -13.7135,-39.5155 -9.2816,-110.0884 9.5597,-152.2262 8.405,-18.7974 12.5231,-23.7002 36.9413,-43.9808 31.5111,-26.1715 64.1437,-43.3238 101.3119,-53.2513 24.1764,-6.4575 31.1982,-6.8416 125.0593,-6.8416 84.0006,0 104.3587,0.878 131.0862,5.6533 38.0118,6.7915 41.0852,7.8686 67.1014,23.5168 17.7938,10.7025 21.922,12.021 32.3948,10.3464 6.6013,-1.0556 12.0017,-1.5642 12.0009,-1.1303 -9e-4,0.4339 -2.713,7.9229 -6.027,16.6421 -3.314,8.7191 -6.0254,18.2358 -6.0254,21.1481 0,2.9123 -3.3902,10.2842 -7.5337,16.3819 -4.1435,6.0978 -7.5337,13.1929 -7.5337,15.7669 0,8.1099 -11.0554,5.2313 -44.6865,-11.6354 -54.5215,-27.3435 -66.6876,-29.9552 -140.6423,-30.1913 l -63.2829,-0.202 -50.289,24.9862 c -51.7396,25.7071 -76.0487,43.2353 -86.0447,62.0431 -6.4285,12.0955 -6.1099,67.7346 0.5178,90.4018 6.2048,21.2212 29.7631,55.6031 63.5282,92.7153 40.9711,45.0327 88.2809,103.4915 101.9537,125.98 6.5013,10.6931 17.1812,30.356 23.7333,43.6954 l 11.9127,24.2534 -1.5661,33.1483 c -2.6563,56.2257 -21.0903,138.0405 -40.0597,177.795 -34.1646,71.5998 -60.3731,112.0652 -90.6946,140.0309 -26.9969,24.8994 -55.3861,40.1472 -86.6789,46.5551 -58.9782,12.0771 -154.0186,14.5689 -188.3422,4.9379 z"
       id="path1766"
       transform="scale(0.26458333)" />
    <path
       style="fill:#000000;stroke:#000000;stroke-width:0.264583px;stroke-linecap:butt;stroke-linejoin:miter;stroke-opacity:1"
       d="m 1100.2953,403.44161 c -4.9124,-1.44124 -8.0444,-6.25946 -12.7571,-7.97317 -3.2852,-1.19462 -6.9113,-1.05497 -10.365,-1.59461 -5.051,-0.7892 -10.0545,-1.96739 -15.149,-2.39194 -4.5026,-0.37523 -9.0385,0.1411 -13.5544,0 -11.8117,-0.36912 -20.9415,-1.2459 -32.6899,0.79729 -17.79494,3.09478 -24.14465,6.34199 -37.47386,18.33827 -1.26492,1.13843 -3.01069,1.79512 -3.98658,3.18926 -0.96393,1.37703 -0.89908,3.25366 -1.59464,4.78388 -2.19647,4.83227 -3.05189,3.16249 -3.98656,8.77049 -0.26217,1.57292 0.13242,3.19476 0,4.78388 -1.28318,15.39809 -0.25974,-4.57838 -1.59464,8.77049 -0.84072,8.40721 0.7947,19.13165 5.5812,26.31141 2.45303,3.6795 6.20363,6.77148 8.77048,10.36507 0.69083,0.96719 0.75417,2.34884 1.59462,3.18927 0.84045,0.84044 2.20033,0.93535 3.18926,1.59464 3.57275,2.38183 6.32526,5.99114 9.56779,8.77046 1.45512,1.24725 3.42873,1.83409 4.78393,3.18926 2.3713,2.37138 10.736,12.88714 11.9597,15.94631 4.525,11.31257 8.3734,40.65328 6.3785,52.62282 -0.1954,1.17239 -1.2531,2.05083 -1.5946,3.18926 -1.8021,6.00702 0.4685,4.4881 -2.3919,11.16242 -0.755,1.76155 -2.3322,3.06973 -3.1893,4.78391 -0.7517,1.50341 -0.7298,3.34253 -1.5946,4.78388 -7.7595,12.93241 -42.81206,18.33824 -56.60945,18.33824 -4.50681,0 -12.44343,1.15734 -16.74363,-0.79729 -1.36866,-0.62215 -2.01527,-2.25007 -3.18926,-3.18927 -4.92069,-3.93657 -10.29456,-7.11708 -15.14898,-11.16242 -1.0941,-0.91176 -7.86633,-8.8773 -8.77046,-7.97314 -0.6758,0.67577 -1.23299,6.09084 -1.59464,7.17582 -0.55957,1.67872 -1.5933,5.57987 -2.39194,6.37852 -0.53676,0.53678 -1.00759,0.42055 -1.59465,1.59464 -0.2377,0.47543 0.37587,1.21878 0,1.59462 -0.14689,0.14692 -2.24501,0.6504 -2.39194,0.79732 -0.63426,0.63426 -1.02176,3.41371 -1.59461,3.98658 -0.18794,0.18794 -0.60939,-0.18793 -0.79733,0 -1.60104,1.60105 2.88439,6.64232 3.18927,7.17585 1.53757,2.69076 2.7242,6.36749 4.78387,8.77046 0.86482,1.00893 2.19607,1.5091 3.18926,2.39194 9.24926,8.22155 18.89096,13.41517 31.09532,16.74362 16.14548,4.40333 40.53972,1.31644 56.6094,-2.39193 4.15627,-0.95915 8.47027,-4.05226 11.95977,-6.37853 1.017,-0.67807 12.3383,-11.40145 12.757,-11.95972 0.6575,-0.87664 0.2165,-2.26004 0.7973,-3.18926 0.7968,-1.27492 2.3553,-1.93834 3.1893,-3.18926 0.7939,-1.19086 0.9545,-2.70645 1.5946,-3.98658 1.063,-2.12601 2.9236,-3.4552 3.9866,-5.58123 0.49,-0.9801 0.3522,-2.18789 0.7973,-3.18926 -0.4294,-3.17691 2.8523,-3.59616 3.9866,-5.5812 1.7255,-3.01964 3.7813,-7.82042 4.7839,-11.1624 3.4376,-11.45874 10.8833,-41.4446 7.1758,-51.82553 -1.3868,-3.88305 -9.8228,-19.60107 -12.757,-23.12214 -0.6135,-0.73616 -1.7684,-0.86707 -2.392,-1.59462 -2.9042,-3.38826 -5.0129,-7.7088 -7.9731,-11.16243 -2.7517,-3.21024 -5.5131,-6.85326 -8.7705,-9.56778 -2.435,-2.02917 -5.2244,-3.77664 -7.1758,-6.37852 -0.3566,-0.47543 -0.5316,-1.0631 -0.7974,-1.59462 -1.063,-1.0631 -2.2662,-2.00253 -3.1892,-3.18926 -2.2421,-2.88261 -3.4106,-6.67367 -5.5812,-9.56779 -1.71464,-2.28613 -1.88852,-0.95144 -3.18929,-3.98658 -1.61364,-3.76518 -2.39194,-11.02976 -2.39194,-15.14901 0,-4.1952 -0.87656,-9.05026 1.59462,-12.75704 1.6606,-2.49089 4.29531,-5.88994 6.37851,-7.97314 1.4482,-1.44822 4.5603,-1.09321 6.3785,-2.39197 3.3814,-2.41527 7.201,-5.47809 11.1625,-7.17581 2.0144,-0.86334 4.4182,-0.61453 6.3785,-1.59465 1.7203,-0.86018 3.6592,-2.80487 5.5812,-3.18926 8.9049,-1.78099 27.7507,-1.78517 36.6765,0 1.1655,0.2331 2.0617,1.21878 3.1893,1.59465 0.7973,0.26574 1.5946,0.53152 2.3919,0.79729 1.5946,0.26577 3.2295,0.35319 4.7839,0.79732 1.9027,0.54362 3.9775,2.91743 5.5812,3.98659 0.6906,0.4604 2.4173,0.41134 3.1893,0.79732 0.6723,0.33618 0.9222,1.25843 1.5946,1.59461 0.6165,0.30824 4.687,3.06261 5.5812,2.39194 6.5665,1.60018 1.4523,-2.24959 2.3919,-3.18926 1.3994,-1.39935 3.9533,-2.292 4.7839,-4.78388 0.6085,-1.82551 -0.1948,-6.18363 0.7974,-7.17584 0.1879,-0.18793 0.6093,0.18793 0.7973,0 0.3758,-0.37587 -0.2377,-1.11921 0,-1.59462 0.8281,-1.65618 2.3919,-0.66921 2.3919,-3.98658"
       id="path1187" />
    <path
       style="fill:#000000;stroke:#000000;stroke-width:3.01348;stroke-opacity:0"
       d="m 3579.2775,2416.706 c -39.1122,-6.5846 -87.8363,-29.0365 -125.1926,-57.6884 -18.3158,-14.048 -25.9358,-22.4287 -35.9465,-39.5347 -20.8901,-35.6965 -20.3613,-34.2753 -14.8173,-39.8194 2.706,-2.7059 4.9199,-6.6989 4.9199,-8.8734 0,-2.1744 2.7511,-4.6729 6.1135,-5.5522 3.3624,-0.8792 5.7729,-2.7325 5.3568,-4.1183 -0.4162,-1.3857 1.571,-5.9986 4.416,-10.2507 2.845,-4.2521 7.4096,-16.7957 10.1436,-27.8746 2.734,-11.079 5.8498,-20.1436 6.9239,-20.1436 1.0742,0 7.9987,6.2633 15.3878,13.9185 7.389,7.6552 26.3173,23.4723 42.0627,35.1492 15.7454,11.6769 31.5145,24.2908 35.0425,28.0307 9.2451,9.8007 27.8517,11.5613 82.0358,7.7625 110.2517,-7.7298 193.4015,-38.0682 205.5949,-75.0145 1.987,-6.0207 7.3407,-16.8252 11.8972,-24.0101 5.1392,-8.1036 9.1039,-19.6207 10.4425,-30.3348 1.1869,-9.4993 4.2454,-21.3081 6.7967,-26.2419 9.9107,-19.1651 -0.7381,-135.8242 -17.2639,-189.1299 -7.0096,-22.6102 -35.061,-62.9073 -53.6098,-77.013 -5.9014,-4.4878 -19.7677,-16.4713 -30.8141,-26.63 -11.0463,-10.1586 -22.955,-19.3814 -26.4637,-20.4951 -3.5088,-1.1136 -7.2436,-4.7469 -8.2995,-8.074 -1.056,-3.3271 -9.4593,-14.4452 -18.674,-24.707 -9.2147,-10.2618 -20.5753,-26.7942 -25.2458,-36.7387 -9.6665,-20.582 -16.1535,-56.4805 -13.5383,-74.9205 0.9727,-6.8586 2.9705,-24.927 4.4395,-40.1519 1.8769,-19.4517 4.585,-30.7785 9.1087,-38.098 3.5407,-5.729 8.1122,-15.1255 10.1588,-20.8813 3.9659,-11.1529 41.5973,-44.3912 70.044,-61.8669 19.5648,-12.0192 53.1599,-23.0074 88.6489,-28.9949 42.7553,-7.2136 155.1397,-6.6388 204.9561,1.0481 20.818,3.2123 44.2143,6.6739 51.9916,7.6923 10.4194,1.3644 19.522,5.775 34.5904,16.7605 20.8303,15.186 27.7588,17.1855 41.4771,11.9698 8.4934,-3.2292 10.2986,0.069 3.2428,5.9248 -2.4678,2.0482 -3.7439,4.9264 -2.8356,6.396 0.9083,1.4696 0.2153,2.672 -1.5399,2.672 -1.7708,0 -3.1913,6.0037 -3.1913,13.4876 0,11.5519 -1.4989,14.8515 -10.4442,22.9915 -8.5162,7.7496 -9.8873,10.5446 -7.4277,15.1405 7.2106,13.4731 -21.8912,1.9562 -61.9852,-24.5305 -4.9723,-3.2847 -12.1792,-5.9773 -16.0155,-5.9835 -3.8363,-0.01 -14.0068,-3.0624 -22.6011,-6.7916 -14.5654,-6.3201 -19.9211,-6.7803 -78.909,-6.7803 -65.0523,0 -65.1222,0.01 -87.3908,12.937 -3.3148,1.9242 -11.7308,4.9221 -18.7023,6.6619 -6.9715,1.7399 -22.7585,9.9075 -35.0824,18.1502 -12.3239,8.2427 -25.1506,14.9867 -28.5038,14.9867 -3.4942,0 -11.481,6.1105 -18.7096,14.314 -21.0536,23.8933 -22.6312,28.4674 -21.9436,63.6251 0.8035,41.0883 5.0816,60.5576 16.4358,74.7978 5.0421,6.3237 11.945,16.9218 15.34,23.5514 7.1255,13.9147 23.245,33.8762 38.4301,47.5896 23.311,21.0518 43.9262,43.9897 59.4773,66.1786 9.006,12.8502 18.8939,25.1285 21.9731,27.2853 6.6252,4.6404 24.2024,33.0058 42.4472,68.4995 12.9736,25.2389 13.1046,25.8045 12.8817,55.6329 -0.4919,65.8414 -35.2718,198.656 -54.7517,209.0814 -3.5399,1.8944 -6.8527,7.8602 -8.1005,14.5875 -1.1612,6.2602 -5.2634,15.5366 -9.1159,20.6141 -3.8526,5.0776 -8.9755,13.892 -11.3843,19.5876 -2.4087,5.6956 -7.2788,12.939 -10.8223,16.0963 -3.5436,3.1574 -6.4429,8.0817 -6.4429,10.943 0,6.7834 -52.1055,53.3854 -71.4806,63.9307 -35.6548,19.4058 -159.2001,32.7325 -215.5312,23.2491 z"
       id="path1259"
       transform="scale(0.26458333)" />
    <path
       style="fill:#000000;stroke:#000000;stroke-width:3.01348;stroke-opacity:0"
       d="m 3579.2775,2416.706 c -39.2614,-6.6097 -87.7945,-28.8698 -124.3276,-57.0241 -18.9546,-14.6072 -26.8551,-23.2095 -36.96,-40.2426 -18.9224,-31.8962 -20.4522,-35.3366 -16.764,-37.7006 1.7541,-1.1244 4.095,-4.9491 5.202,-8.4993 1.107,-3.5502 4.9597,-7.2256 8.5616,-8.1675 3.6019,-0.942 5.5882,-2.6734 4.4139,-3.8477 -1.1743,-1.1743 -0.1338,-4.3466 2.3123,-7.0494 5.3613,-5.9242 13.6286,-28.4987 13.6927,-37.3889 0.025,-3.5208 1.3347,-8.4356 2.9095,-10.9217 2.34,-3.6941 6.0493,-1.4324 20.2948,12.3746 9.5873,9.2922 28.9581,25.433 43.0461,35.8685 14.088,10.4355 29.4446,22.4957 34.1259,26.8005 8.3934,7.7185 9.1088,7.8206 51.6071,7.3656 71.0465,-0.7606 140.3522,-13.8666 186.792,-35.3232 24.0519,-11.1126 44.8447,-29.4328 48.0926,-42.3735 1.1338,-4.5175 5.3923,-13.2469 9.4633,-19.3986 4.071,-6.1517 8.81,-19.2636 10.5311,-29.1375 1.7211,-9.874 5.3169,-23.024 7.9907,-29.2224 9.4845,-21.9867 -0.6175,-136.8492 -16.5332,-187.9864 -6.6279,-21.2955 -25.7682,-50.622 -45.7676,-70.1247 -24.0283,-23.4314 -57.2915,-51.6898 -64.9544,-55.1812 -4.0012,-1.8231 -8.004,-5.6119 -8.8952,-8.4196 -0.8911,-2.8077 -9.2249,-13.7894 -18.5197,-24.4038 -9.2947,-10.6145 -20.7469,-27.4354 -25.4493,-37.3799 -9.9534,-21.049 -16.2878,-57.0486 -13.4937,-76.6868 1.0734,-7.5446 3.1119,-25.5326 4.5298,-39.9733 1.7649,-17.9731 4.5932,-29.5162 8.9658,-36.5912 3.5132,-5.6845 8.0622,-15.0261 10.1088,-20.7593 4.1106,-11.5144 40.1047,-43.5302 68.5399,-60.9643 21.6486,-13.2731 54.3081,-23.9667 92.4135,-30.2586 40.1062,-6.6223 175.0121,-5.0711 214.9321,2.4714 14.088,2.6618 31.9565,5.6466 39.7078,6.6331 7.7512,0.9864 18.5997,5.0521 24.1078,9.0349 28.8789,20.8822 35.7519,23.8025 48.1996,20.48 8.6249,-2.3021 11.3461,-2.2388 10.1549,0.2361 -0.895,1.8594 -2.4643,5.7539 -3.4874,8.6544 -1.023,2.9005 -3.058,5.2736 -4.5221,5.2736 -1.4641,0 -2.662,6.0918 -2.662,13.5374 0,11.3136 -1.521,14.8926 -9.2593,21.7874 -6.5633,5.848 -8.8785,10.2417 -7.9515,15.0906 0.9916,5.1873 -0.088,6.8406 -4.4682,6.8406 -6.3658,0 -36.3538,-15.234 -55.1108,-27.9966 -6.6001,-4.4908 -15.1631,-8.1651 -19.029,-8.1651 -3.8659,0 -14.0606,-3.0511 -22.6549,-6.7803 -14.5654,-6.3201 -19.9211,-6.7803 -78.909,-6.7803 -63.0399,0 -63.3409,0.031 -78.3503,8.1437 -8.2871,4.479 -20.8153,9.6123 -27.8404,11.4074 -7.0251,1.7951 -21.8925,9.5072 -33.0385,17.1381 -11.1461,7.631 -24.6552,15.0865 -30.0204,16.5678 -5.5146,1.5227 -14.5155,8.2167 -20.7072,15.4001 -19.2662,22.352 -20.9077,27.391 -20.2653,62.2092 0.7598,41.1775 4.9559,60.3484 16.3299,74.6064 5.0445,6.3237 12.4095,17.863 16.3667,25.643 4.1539,8.1667 22.5306,29.5946 43.4791,50.6979 19.9563,20.1038 43.8189,47.3052 53.0279,60.4475 9.2091,13.1423 19.1456,25.586 22.0812,27.6525 7.2057,5.0725 23.4084,30.8735 41.1542,65.5336 l 14.6575,28.628 -0.2233,30.1348 c -0.4804,64.7921 -32.5132,189.3381 -53.8534,209.3862 -4.0011,3.7588 -8.1715,11.0711 -9.2677,16.2495 -1.0962,5.1785 -5.1109,13.5698 -8.9216,18.6473 -3.8106,5.0776 -8.8992,13.892 -11.308,19.5876 -2.4087,5.6956 -7.2788,12.939 -10.8223,16.0963 -3.5436,3.1574 -6.4429,8.1386 -6.4429,11.0695 0,6.8857 -51.7123,53.0449 -71.4788,63.8032 -35.9289,19.555 -158.7702,32.8061 -215.533,23.2501 z"
       id="path1298"
       transform="scale(0.26458333)" />
    <path
       style="fill:#000000;stroke:#000000;stroke-width:3.01348;stroke-opacity:0"
       d="m 3571.5619,2415.2178 c -40.422,-8.7764 -78.1164,-26.6432 -115.4416,-54.7183 -17.0205,-12.8023 -28.3063,-23.8425 -32.7955,-32.0815 -3.7645,-6.9091 -10.9131,-19.0644 -15.8858,-27.0118 l -9.0411,-14.4499 5.4988,-10.2108 c 3.0244,-5.616 7.9902,-10.8623 11.0351,-11.6585 3.0448,-0.7963 5.1956,-2.5816 4.7795,-3.9674 -0.4162,-1.3857 1.5172,-5.9164 4.2964,-10.0681 2.7792,-4.1517 7.0608,-16.1552 9.5148,-26.6744 2.454,-10.5192 5.2178,-19.882 6.142,-20.8061 0.9241,-0.9241 9.4876,5.727 19.0299,14.7802 9.5424,9.0532 25.4862,22.4308 35.4307,29.728 9.9444,7.2972 25.4828,19.4299 34.5297,26.9616 l 16.4488,13.694 42.7626,-0.6537 c 113.3502,-1.7327 214.1617,-33.2712 231.5202,-72.4301 2.7534,-6.2115 6.5535,-14.0057 8.4447,-17.3205 9.0609,-15.882 13.7642,-28.3477 15.6771,-41.5505 1.1499,-7.9361 4.0339,-19.0801 6.4089,-24.7644 11.6791,-27.952 -3.0242,-159.9352 -22.4904,-201.8844 -8.1634,-17.5918 -43.1439,-64.7897 -48.0185,-64.7897 -1.3372,0 -13.6107,-10.1062 -27.2745,-22.4582 -13.6638,-12.352 -27.2643,-23.2265 -30.2234,-24.1657 -2.9591,-0.9392 -6.8138,-4.7327 -8.566,-8.43 -1.7523,-3.6973 -10.2494,-14.8588 -18.8826,-24.8033 -8.6332,-9.9444 -19.5606,-26.2172 -24.2831,-36.1617 -9.9126,-20.8736 -16.307,-56.8248 -13.6399,-76.6868 1.0131,-7.5446 3.0886,-25.5925 4.6122,-40.1065 1.8536,-17.6581 4.8563,-29.7645 9.0754,-36.5912 3.4679,-5.6112 7.9799,-14.9329 10.0265,-20.7149 3.9985,-11.296 35.2729,-39.4805 65.9428,-59.4276 21.1695,-13.7682 55.0512,-25.069 95.0106,-31.6893 39.4766,-6.5404 174.4691,-5.0471 214.9321,2.3776 14.088,2.585 32.0207,5.5654 39.8504,6.623 9.2427,1.2484 19.284,5.5671 28.628,12.3126 25.0631,18.0932 32.8691,21.1398 43.6948,17.0535 5.2113,-1.967 9.8893,-3.1622 10.3956,-2.6559 1.5687,1.5687 -6.4171,17.0071 -8.8101,17.032 -1.2431,0.013 -2.2601,6.2022 -2.2601,13.754 0,11.5456 -1.5044,15.1045 -9.4536,22.3651 -6.7238,6.1411 -8.9807,10.4431 -7.8158,14.8975 1.2473,4.7698 0.2284,6.2629 -4.2738,6.2629 -6.2371,0 -38.2794,-16.0741 -53.1497,-26.6626 -4.8351,-3.4429 -14.7668,-7.5991 -22.0705,-9.2358 -7.3037,-1.6368 -18.6923,-5.3964 -25.3079,-8.3547 -10.2969,-4.6044 -21.1378,-5.3852 -75.3114,-5.4239 -62.8765,-0.045 -63.3797,0.01 -78.3503,8.0136 -8.2871,4.4323 -20.4917,9.6624 -27.1213,11.6223 -6.6297,1.9599 -22.303,10.199 -34.8297,18.3091 -12.5266,8.11 -24.9662,14.7455 -27.6434,14.7455 -7.0852,0 -21.5533,13.1203 -32.2107,29.21 -8.9742,13.5486 -9.2796,15.1159 -9.2341,47.3969 0.053,37.6215 5.3497,65.2305 14.3889,75.0037 3.3559,3.6283 11.131,15.231 17.2782,25.7838 6.7227,11.5409 24.0573,32.0132 43.4992,51.3731 17.7774,17.7024 41.9325,45.198 53.678,61.1013 11.7456,15.9033 22.6323,29.3991 24.1929,29.9907 4.2645,1.6167 22.0872,30.6603 38.5692,62.8519 l 14.6575,28.628 -0.2622,30.1348 c -0.5706,65.5643 -32.3523,189.2235 -53.8145,209.3862 -4.0011,3.7588 -8.1994,11.0711 -9.3296,16.2495 -1.1302,5.1785 -5.9468,15.084 -10.7035,22.0123 -4.7567,6.9282 -8.6485,14.0004 -8.6485,15.7159 0,1.7154 -4.0682,7.7524 -9.0405,13.4155 -4.9722,5.663 -9.0404,12.4323 -9.0404,15.0428 0,6.4323 -52.4636,52.7123 -71.429,63.01 -38.5614,20.9379 -168.6955,33.6246 -223.2984,21.7693 z"
       id="path1337"
       transform="scale(0.26458333)" />
    <path
       style="fill:#000000;stroke:#000000;stroke-width:3.01348;stroke-opacity:0"
       d="m 3570.9687,2415.3323 c -39.5439,-8.88 -77.4187,-26.7857 -113.8622,-53.8294 -22.0143,-16.3362 -26.9459,-21.8592 -41.7302,-46.7338 l -16.7655,-28.2082 5.5097,-10.231 c 3.0304,-5.627 7.8818,-10.9838 10.7809,-11.9039 2.8991,-0.9202 5.0198,-2.6075 4.7127,-3.7495 -0.3071,-1.1421 1.7539,-6.4152 4.5801,-11.718 2.8261,-5.3028 7.1524,-17.3736 9.6139,-26.824 2.4615,-9.4504 5.1592,-17.8663 5.9948,-18.702 0.8357,-0.8356 8.6538,5.1871 17.3736,13.3839 8.7198,8.1967 27.3808,23.5314 41.4688,34.0771 14.088,10.5456 29.2513,22.5222 33.6963,26.6146 11.2343,10.3432 25.0979,12.1048 75.1072,9.5435 55.0924,-2.8217 95.3209,-9.6024 135.1067,-22.7729 34.2017,-11.322 47.4982,-18.1863 62.9924,-32.5198 10.8775,-10.0627 36.6336,-59.147 36.6336,-69.814 0,-3.5886 2.838,-15.1767 6.3068,-25.7514 5.5158,-16.8155 6.0984,-23.951 4.6455,-56.8953 -1.9474,-44.1588 -8.5771,-91.4614 -17.4506,-124.5088 -6.9414,-25.8516 -26.3252,-58.6804 -46.6728,-79.0459 -17.3394,-17.3546 -60.2541,-53.6751 -66.951,-56.6633 -3.166,-1.4127 -7.1389,-5.4815 -8.8287,-9.0418 -1.6898,-3.5603 -10.1287,-14.6096 -18.7531,-24.5541 -28.0121,-32.2994 -42.2403,-74.5208 -38.0181,-112.8159 6.711,-60.8691 7.9067,-67.4569 14.1531,-77.9773 3.6279,-6.1103 8.1184,-15.3556 9.9788,-20.5451 2.0358,-5.6785 12.3818,-16.9701 25.9837,-28.3584 64.5667,-54.0589 106.6742,-66.142 230.5309,-66.1529 58.1964,-0.01 77.4372,1.1933 119.9958,7.4736 27.8773,4.1139 52.2864,8.3708 54.2426,9.4599 1.9561,1.0892 12.6981,8.1223 23.871,15.6291 19.4246,13.0511 20.8039,13.4987 31.4883,10.2196 6.1456,-1.8862 11.5676,-3.0356 12.0489,-2.5544 1.5369,1.5369 -6.5048,16.9621 -8.8556,16.9866 -1.2431,0.013 -2.2601,6.2022 -2.2601,13.754 0,11.5456 -1.5044,15.1045 -9.4536,22.3651 -6.7238,6.1411 -8.9807,10.4431 -7.8158,14.8975 1.2473,4.7698 0.2284,6.2629 -4.2738,6.2629 -6.2371,0 -38.2794,-16.0741 -53.1497,-26.6626 -4.8351,-3.4429 -14.7668,-7.5991 -22.0705,-9.2358 -7.3037,-1.6368 -18.6923,-5.3548 -25.3079,-8.2621 -10.145,-4.4584 -21.7011,-5.3076 -73.8046,-5.4239 l -61.7763,-0.1379 -19.5876,9.391 c -10.7732,5.1651 -22.9777,10.196 -27.1213,11.1798 -4.1435,0.9838 -15.67,6.7717 -25.6145,12.8619 -20.6666,12.6568 -29.7818,17.4997 -41.2121,21.896 -4.4352,1.7058 -13.9276,10.8629 -21.0944,20.349 l -13.0304,17.2474 -1.014,32.415 c -1.3112,41.916 2.7669,60.8055 18.2706,84.6287 6.8205,10.4804 15.8984,24.3962 20.1732,30.9239 4.2748,6.5277 21.4255,25.5126 38.1127,42.1887 16.6871,16.676 40.0565,43.4211 51.9319,59.4335 11.8754,16.0124 22.7952,29.573 24.266,30.1347 10.3265,3.9436 51.6827,85.6788 53.7397,106.2095 2.2626,22.5819 -6.4704,82.2306 -19.801,135.2464 -12.6422,50.2782 -23.9682,79.1722 -35.1529,89.6797 -3.8904,3.6549 -7.9346,10.5661 -8.9872,15.3584 -2.0611,9.3839 -17.4085,36.8876 -29.8788,53.5448 -4.2324,5.6535 -7.6953,12.0365 -7.6953,14.1846 0,6.9044 -56.7803,54.7845 -76.2577,64.3044 -27.6646,13.5217 -78.5107,21.5712 -145.2328,22.9921 -40.1707,0.8555 -59.324,0.015 -73.8301,-3.2435 z"
       id="path1376"
       transform="scale(0.26458333)" />
    <path
       style="fill:#000000;stroke:#000000;stroke-width:3.01348;stroke-opacity:0"
       d="m 3570.9687,2415.3323 c -40.1831,-9.0235 -77.8291,-26.9797 -114.6715,-54.6953 -22.6026,-17.0033 -27.7614,-22.7459 -41.9249,-46.6702 l -16.1508,-27.2812 5.2267,-8.848 c 2.8746,-4.8664 8.48,-12.3585 12.4564,-16.6491 7.3309,-7.9101 19.4194,-36.2001 19.5038,-45.6435 0.025,-2.8383 1.2697,-7.0939 2.7651,-9.4568 2.1567,-3.4077 6.3154,-1.0093 20.1081,11.5964 9.564,8.741 28.3216,24.1386 41.6836,34.217 13.3621,10.0784 28.9473,22.3239 34.6339,27.2122 l 10.3392,8.8879 54.4505,-1.6347 c 77.0292,-2.3126 137.0783,-14.7193 179.7357,-37.1351 25.1377,-13.2095 32.5365,-20.9704 47.7874,-50.1262 11.2068,-21.4245 15.3905,-34.8381 25.0281,-80.2437 7.3286,-34.5278 -9.378,-157.4462 -25.9937,-191.2479 -14.8476,-30.2047 -40.9366,-58.365 -91.8091,-99.0979 -17.128,-13.7142 -16.7227,-13.2789 -40.3859,-43.3686 -22.1764,-28.1991 -30.5163,-45.7332 -35.5783,-74.801 -5.8569,-33.633 1.8571,-94.1447 15.8337,-124.2046 8.4044,-18.0759 13.6555,-24.5958 32.594,-40.4695 64.4266,-54.0008 106.4038,-66.0269 230.5053,-66.0378 58.1448,-0.01 77.4523,1.1955 119.8555,7.4529 53.0233,7.8247 55.2598,8.5248 77.325,24.2066 17.3885,12.3579 24.4254,14.4771 34.877,10.5035 11.2015,-4.2588 11.9231,-2.661 4.648,10.2918 -3.396,6.0463 -6.1746,15.7107 -6.1746,21.4763 0,7.583 -2.5518,13.1532 -9.2246,20.1356 -5.6075,5.8677 -8.6722,11.7651 -7.8158,15.04 2.3056,8.8166 -9.4018,6.3962 -32.682,-6.7568 -28.3218,-16.0013 -41.2966,-21.9075 -66.2964,-30.1784 -19.3198,-6.3916 -26.2108,-6.9679 -81.9126,-6.8496 l -60.8182,0.1291 -19.0389,9.0513 c -10.4714,4.9782 -22.429,9.8526 -26.5726,10.832 -4.1435,0.9793 -16.3481,7.2815 -27.1212,14.0048 -10.7732,6.7233 -26.368,15.4155 -34.655,19.3161 -10.3546,4.8737 -18.8376,12.1105 -27.1213,23.1369 l -12.0539,16.045 v 40.858 c 0,24.4908 1.4625,44.8247 3.6478,50.76 7.6639,20.8164 39.3053,63.7818 71.5263,97.1248 18.4446,19.0869 41.4781,45.5301 51.1855,58.7628 9.7075,13.2327 21.9229,28.4155 27.1453,33.7395 13.2272,13.4845 49.4633,84.2123 51.7712,101.0501 3.6828,26.8689 -9.2977,107.0288 -27.3646,168.9877 -8.3672,28.6947 -17.1104,48.179 -25.9714,57.8772 -3.0717,3.362 -7.4954,11.5274 -9.8303,18.1452 -2.3349,6.6178 -7.466,16.9339 -11.4024,22.9247 -8.2742,12.5923 -16.6013,26.1694 -25.4381,41.4759 -9.0906,15.7463 -55.8708,55.8027 -77.5371,66.3926 -27.6937,13.5361 -78.5096,21.584 -145.26,23.0055 -40.1707,0.8555 -59.324,0.015 -73.8301,-3.2435 z"
       id="path1415"
       transform="scale(0.26458333)" />
    <path
       style="fill:#000000;stroke:#000000;stroke-width:3.01348;stroke-opacity:0"
       d="m 3574.2087,2416.5445 c -37.1744,-7.2934 -80.7802,-27.968 -117.9115,-55.9048 -22.5695,-16.9807 -27.7716,-22.766 -41.8405,-46.5305 l -16.0665,-27.1387 5.6107,-10.4184 c 3.0859,-5.7301 6.6012,-10.4184 7.8118,-10.4184 4.2283,0 17.0981,-25.7573 21.6025,-43.2346 2.4977,-9.691 5.2194,-18.2982 6.0483,-19.1272 0.8289,-0.8288 11.4328,7.123 23.5641,17.6708 12.1314,10.5478 30.8715,25.8499 41.6446,34.0045 10.7732,8.1547 24.255,18.8284 29.9595,23.7193 l 10.372,8.8926 52.911,-1.6859 c 76.6097,-2.441 130.3417,-13.191 176.4636,-35.3048 13.2593,-6.3573 27.6693,-15.3998 32.0224,-20.0944 14.5868,-15.7315 31.087,-52.3632 40.2249,-89.3023 8.7893,-35.5297 8.7944,-35.6062 5.2552,-78.3503 -6.8776,-83.0652 -16.9236,-123.5646 -38.8281,-156.5328 -13.1426,-19.7807 -50.3733,-56.4733 -80.8631,-79.6942 -8.287,-6.3114 -16.077,-13.0368 -17.3111,-14.9453 -1.234,-1.9085 -10.8178,-14.2646 -21.2974,-27.4581 -34.5963,-43.5559 -42.5182,-75.6958 -34.3453,-139.3439 6.7644,-52.6795 16.7877,-74.0506 46.3394,-98.8017 42.8845,-35.918 58.9229,-44.5592 105.8908,-57.0516 27.1231,-7.2142 35.0187,-7.8624 110.5726,-9.0773 75.6328,-1.2161 85.0294,-0.7649 133.4043,6.4046 54.7836,8.1194 57.4734,8.952 79.0457,24.4679 17.1496,12.3348 24.2288,14.4803 34.6749,10.5087 11.3773,-4.3257 12.3856,-2.1331 4.8739,10.5983 -3.5203,5.9664 -6.4005,15.4696 -6.4005,21.1181 0,7.192 -2.8053,13.4651 -9.3598,20.9302 -5.4153,6.1677 -8.63,12.5616 -7.6282,15.1722 3.0787,8.0231 -9.5261,5.0912 -33.7257,-7.8447 -12.7141,-6.7963 -24.6282,-13.5905 -26.4757,-15.0982 -1.8477,-1.5076 -15.9738,-6.7956 -31.3914,-11.7509 -27.3994,-8.8064 -29.4317,-9.0094 -90.0584,-8.9983 l -62.0265,0.011 -18.0808,9.0178 c -9.9445,4.9597 -20.2375,9.0228 -22.8735,9.029 -2.6359,0.01 -16.1965,6.8921 -30.1347,15.3019 -13.9382,8.4097 -29.5007,17.051 -34.5833,19.2028 -11.4217,4.8357 -29.735,23.8023 -36.3535,37.6505 -4.0973,8.5729 -4.6546,16.6582 -3.2196,46.7088 0.9545,19.9878 3.0731,40.7243 4.708,46.0812 5.6837,18.6228 37.6282,62.2672 70.9921,96.9936 18.4613,19.2152 41.1548,45.0989 50.43,57.5194 9.2752,12.4205 21.7666,27.9978 27.7589,34.6164 15.9209,17.5849 49.9748,85.3009 52.1551,103.71 5.9397,50.1512 -31.8779,207.2856 -54.3825,225.9628 -2.5306,2.1002 -6.2031,8.7953 -8.1612,14.878 -3.6565,11.3594 -19.9029,39.9993 -32.0765,56.5461 -3.7732,5.1287 -6.8604,10.7999 -6.8604,12.6028 0,5.3021 -46.8361,46.4185 -66.6319,58.4948 -20.5739,12.5509 -44.5981,18.8762 -95.9812,25.2708 -37.4671,4.6628 -108.0702,5.2202 -129.4675,1.0221 z"
       id="path1454"
       transform="scale(0.26458333)" />
    <path
       style="fill:#000000;stroke:#000000;stroke-width:3.01348;stroke-opacity:0"
       d="m 3569.1597,2415.5457 c -40.2012,-9.1905 -86.2617,-32.2887 -121.8778,-61.1188 -12.3287,-9.9797 -21.7093,-21.5411 -33.1294,-40.8315 l -15.931,-26.9098 5.2267,-8.848 c 2.8746,-4.8664 8.3345,-12.2014 12.1329,-16.3 7.1213,-7.684 13.9361,-23.5437 19.714,-45.8796 1.8221,-7.044 3.9938,-12.8073 4.8259,-12.8073 0.8322,0 12.6455,9.4507 26.2518,21.0015 13.6063,11.5508 36.9434,30.6835 51.8601,42.517 l 27.1213,21.5154 51.229,-1.6533 c 98.4862,-3.1783 185.693,-26.8005 211.3035,-57.2369 13.7643,-16.3579 30.4817,-54.2775 38.7716,-87.9441 7.2905,-29.6082 7.9442,-36.4825 6.1593,-64.7655 -4.1258,-65.3749 -15.5835,-124.8891 -29.1953,-151.6478 -14.0835,-27.686 -49.7144,-65.4966 -92.9394,-98.6248 -7.4583,-5.7162 -14.5921,-11.9936 -15.8528,-13.9497 -1.2607,-1.9562 -9.9267,-12.8047 -19.2577,-24.1078 -21.0088,-25.4493 -32.8909,-50.1628 -37.7073,-78.4279 -3.0971,-18.175 -2.8992,-28.2458 1.2138,-61.7763 6.6724,-54.3939 16.2236,-75.3628 45.9895,-100.9663 30.2805,-26.0461 55.7575,-41.5914 82.2911,-50.2115 44.6428,-14.5032 54.0302,-15.4555 151.2532,-15.3435 81.4876,0.094 96.3468,0.8764 131.0244,6.8993 29.2305,5.0768 42.4283,8.8572 52.2326,14.9614 35.7234,22.2416 36.2862,22.472 46.3325,18.9698 5.1988,-1.8123 10.0052,-2.7424 10.6807,-2.0668 0.6756,0.6755 -1.5784,6.7299 -5.0088,13.4542 -3.4305,6.7242 -6.2372,16.3009 -6.2372,21.2814 0,5.7712 -3.2895,12.8022 -9.0696,19.3853 -5.6309,6.4133 -8.365,12.1657 -7.2113,15.1723 3.0356,7.9104 -9.4397,5.9174 -30.0062,-4.7938 -10.1764,-5.3 -22.2142,-12.16 -26.7505,-15.2446 -4.5363,-3.0846 -20.809,-9.5728 -36.1617,-14.4183 -27.043,-8.5351 -29.8447,-8.8116 -89.8063,-8.8631 -56.9476,-0.049 -62.8462,0.4483 -73.8302,6.2248 -6.5657,3.453 -19.2981,8.8872 -28.2942,12.076 -8.9961,3.1888 -25.9469,11.7283 -37.6684,18.9768 -11.7216,7.2484 -24.2891,14.0867 -27.9278,15.1962 -3.6387,1.1095 -13.3904,9.4297 -21.6704,18.4893 -11.907,13.0282 -15.4943,19.4046 -17.1579,30.4982 -2.6622,17.7533 0.5943,69.0051 5.2459,82.5605 6.5483,19.0822 38.0924,62.0003 71.212,96.8891 18.0985,19.0653 41.2384,45.6097 51.4221,58.9875 10.1836,13.3778 19.9843,25.2309 21.7792,26.3402 5.2457,3.2421 22.2585,31.2227 39.4988,64.963 l 16.0003,31.3136 -0.4489,33.1483 c -0.8914,65.8108 -30.3307,180.7106 -52.5251,205.0021 -3.0717,3.362 -7.5106,11.4984 -9.8641,18.0809 -2.3535,6.5824 -9.8433,20.7825 -16.6439,31.5557 -6.8006,10.7732 -15.028,24.4946 -18.2831,30.4922 -13.2412,24.3972 -69.5675,68.3811 -97.9698,76.5022 -49.6672,14.2015 -163.6803,21.1223 -202.3461,12.2828 z"
       id="path1493"
       transform="scale(0.26458333)" />
    <path
       style="fill:#000000;stroke:#000000;stroke-width:3.01348;stroke-opacity:0"
       d="m 3568.8523,2415.483 c -43.6126,-9.9527 -102.2211,-41.1519 -131.9833,-70.2588 -6.6296,-6.4837 -17.9718,-22.2946 -25.2049,-35.1352 l -13.151,-23.3467 5.5492,-10.3043 c 3.0521,-5.6674 6.463,-10.3043 7.5798,-10.3043 3.9731,0 14.6352,-21.5188 20.9293,-42.2407 3.5153,-11.5732 7.0922,-21.0423 7.9488,-21.0423 0.8566,0 9.1999,6.6181 18.5407,14.7069 9.3408,8.0888 32.5204,27.0737 51.5101,42.1887 l 34.5268,27.4817 28.7562,-0.01 c 90.8564,-0.033 184.4229,-20.7293 223.3637,-49.4078 17.1306,-12.6161 34.7259,-44.9666 46.8773,-86.1883 7.2344,-24.5413 8.3947,-33.575 8.1286,-63.283 -0.3473,-38.7611 -7.2111,-93.4382 -16.0853,-128.1361 -10.8065,-42.2543 -31.3521,-71.0145 -80.7693,-113.0637 -39.5959,-33.6922 -38.7209,-32.8321 -59.6538,-58.6423 -21.2809,-26.2392 -33.0541,-50.8258 -37.8698,-79.0857 -5.6318,-33.0488 2.2983,-93.6905 16.0979,-123.1004 21.2552,-45.2993 82.5975,-85.4449 154.6776,-101.229 12.7457,-2.7911 45.2012,-3.954 109.9918,-3.9411 81.9516,0.016 96.1561,0.7588 131.0862,6.8521 31.6098,5.5142 42.085,8.6693 54.2426,16.3376 28.6127,18.0474 34.164,20.2075 44.3929,17.2739 5.1977,-1.4907 9.9739,-2.187 10.6137,-1.5472 0.6397,0.6397 -1.6436,6.6648 -5.074,13.3891 -3.4305,6.7242 -6.2372,16.1616 -6.2372,20.9719 0,5.1435 -3.6535,13.3434 -8.8694,19.9069 -4.8782,6.1384 -8.1233,13.1051 -7.2113,15.4817 2.7702,7.2189 -9.6559,5.1033 -29.9608,-5.1011 -10.3115,-5.1821 -22.1384,-11.8 -26.2819,-14.7063 -4.1436,-2.9064 -20.7716,-9.5149 -36.9512,-14.6857 -28.8925,-9.2337 -30.4939,-9.4015 -89.751,-9.4015 -57.4083,0 -61.0229,0.3454 -74.5475,7.1223 -7.8176,3.9173 -19.6381,8.8343 -26.2678,10.9266 -6.6296,2.0924 -22.9024,10.253 -36.1617,18.1346 -13.2593,7.8817 -27.0338,15.221 -30.6102,16.3096 -8.9215,2.7156 -30.6083,26.8189 -36.3076,40.3533 -7.254,17.2266 -3.4015,77.5123 6.278,98.2397 11.1628,23.9036 34.5186,54.8336 68.7876,91.0951 17.2883,18.2935 38.048,41.9552 46.1327,52.5816 8.0847,10.6263 20.1979,25.5932 26.9183,33.2597 13.0801,14.9214 46.6798,74.7844 52.9398,94.32 12.5764,39.2478 -23.9274,208.1917 -51.5062,238.3764 -3.0717,3.362 -7.5106,11.4984 -9.8641,18.0809 -2.3535,6.5824 -9.8433,20.7825 -16.6439,31.5557 -6.8006,10.7732 -15.028,24.4946 -18.2831,30.4922 -13.2412,24.3972 -69.5675,68.3811 -97.9698,76.5022 -49.8743,14.2607 -163.6485,21.1214 -202.6535,12.2201 z"
       id="path1532"
       transform="scale(0.26458333)" />
    <path
       style="fill:#000000;stroke:#000000;stroke-width:3.01348;stroke-opacity:0"
       d="m 3563.0652,2414.065 c -32.2339,-8.7566 -62.8376,-22.7365 -89.8798,-41.0577 -34.8953,-23.6416 -41.4404,-30.1179 -58.8607,-58.2419 -16.9955,-27.4383 -17.629,-33.2035 -5.0437,-45.8996 9.2907,-9.3725 18.224,-27.1498 24.5116,-48.7783 2.7559,-9.4802 5.6605,-17.2368 6.4544,-17.2368 0.794,0 14.0085,10.5095 29.3656,23.3545 15.3571,12.8449 38.6814,31.9225 51.8318,42.3946 l 23.9098,19.0402 48.2156,-1.667 c 99.8875,-3.4537 180.6889,-24.4408 211.0712,-54.8231 19.0806,-19.0806 41.3157,-73.8835 47.736,-117.655 2.248,-15.3261 -2.7126,-80.2755 -8.9412,-117.0673 -12.1158,-71.5668 -29.3781,-100.1788 -91.8144,-152.1805 -16.9149,-14.088 -32.5499,-27.6486 -34.7445,-30.1347 -55.8019,-63.2148 -67.1195,-96.1148 -57.841,-168.1435 7.669,-59.5351 20.0092,-81.0701 67.1268,-117.1431 31.8689,-24.3986 73.3787,-40.0676 122.4566,-46.2243 44.5637,-5.5904 178.1485,-2.3346 223.0034,5.4352 37.0284,6.4141 40.0883,7.5476 65.0813,24.1088 13.7404,9.1047 17.5317,10.2557 29.3814,8.9201 7.483,-0.8434 13.6054,-1.1701 13.6054,-0.726 0,0.4441 -2.6824,6.7188 -5.9608,13.9438 -3.2784,7.225 -5.9905,16.7615 -6.0269,21.1922 -0.037,4.4307 -3.4564,12.0848 -7.5999,17.0091 -4.1435,4.9243 -7.5337,11.8087 -7.5337,15.2986 0,10.1034 -10.177,7.8893 -41.938,-9.1239 -53.4492,-28.6309 -61.8103,-30.6158 -134.9088,-32.0269 l -63.8415,-1.2324 -19.0291,8.1802 c -10.466,4.4991 -28.5215,12.746 -40.1234,18.3264 -58.7241,28.2458 -74.8986,40.211 -86.3586,63.8841 -5.8158,12.0139 -6.2612,16.5589 -4.6211,47.1619 0.9982,18.6267 3.7571,39.504 6.1309,46.3939 7.112,20.6427 35.7016,59.9799 70.8853,97.5326 18.2251,19.4524 39.5969,43.8615 47.4928,54.2426 7.8959,10.381 19.8547,25.1281 26.5751,32.7712 6.7205,7.6431 21.5301,31.0538 32.9103,52.0237 17.8803,32.9476 20.9024,40.7579 22.2457,57.4926 2.0112,25.055 -6.1571,82.7107 -18.8047,132.7326 -12.2335,48.384 -20.1412,69.5421 -32.9502,88.1632 -5.4615,7.9396 -10.9512,17.7942 -12.1992,21.899 -5.7397,18.8772 -42.2813,72.9859 -61.3139,90.79 -50.8985,47.613 -88.1299,59.1116 -199.429,61.5921 -51.3647,1.1447 -61.465,0.5755 -80.2269,-4.5212 z"
       id="path1571"
       transform="scale(0.26458333)" />
    <path
       style="fill:#000000;stroke:#000000;stroke-width:3.01348;stroke-opacity:0"
       d="m 3563.4152,2414.1538 c -43.0832,-11.7164 -71.4906,-25.9677 -110.9855,-55.6788 -16.293,-12.2568 -24.0625,-21.0854 -37.1532,-42.2184 -18.1207,-29.2527 -18.5789,-33.4425 -5.3165,-48.6161 10.3464,-11.8376 17.4672,-26.1598 23.5976,-47.4623 2.7426,-9.5301 5.8195,-17.3275 6.8376,-17.3275 1.018,0 9.3802,6.4413 18.5825,14.314 9.2024,7.8727 32.4017,26.8323 51.554,42.1324 l 34.8225,27.8183 24.1078,0.03 c 101.0557,0.1281 201.8381,-24.0051 235.0836,-56.2928 13.3232,-12.9393 32.1674,-52.2928 40.8257,-85.2584 8.0902,-30.8034 8.4922,-73.3439 1.1959,-126.566 -12.0103,-87.6077 -27.4877,-117.18 -88.9731,-169.9995 -15.861,-13.6255 -31.476,-26.7168 -34.7,-29.0919 -11.33,-8.3462 -44.3718,-52.7395 -53.2881,-71.5949 -13.7638,-29.1067 -16.5726,-56.1834 -10.6304,-102.4763 7.8844,-61.423 21.2602,-83.533 73.7336,-121.8803 20.5931,-15.0494 47.6499,-27.0064 80.8443,-35.7269 25.7531,-6.7657 31.9098,-7.1254 122.0458,-7.1303 77.0785,0 101.1564,1.0132 128.0727,5.4119 41.7138,6.8169 46.7718,8.5268 70.0105,23.6674 16.8819,10.9989 20.4839,12.2013 32.4973,10.8472 7.4311,-0.8376 13.511,-1.1595 13.511,-0.7154 0,0.4441 -2.6824,6.7188 -5.9608,13.9438 -3.2784,7.225 -5.9905,16.7615 -6.0269,21.1922 -0.037,4.4307 -3.4564,12.0848 -7.5999,17.0091 -4.1435,4.9243 -7.5337,11.8087 -7.5337,15.2986 0,10.1034 -10.177,7.8893 -41.938,-9.1239 -52.6131,-28.183 -61.8123,-30.372 -134.4232,-31.9869 -55.328,-1.2305 -64.8739,-0.7518 -75.3369,3.7777 -6.5896,2.8527 -19.8541,8.352 -29.4767,12.2206 -9.6226,3.8687 -32.5289,15.5245 -50.9028,25.9018 -37.9113,21.4117 -54.5912,38.6306 -58.2184,60.0998 -2.678,15.8507 1.0075,67.1015 5.8439,81.2668 6.0956,17.8532 38.7752,62.6742 70.1606,96.2271 31.8601,34.0604 71.8461,82.2972 87.3184,105.336 5.2715,7.8495 16.6214,27.4417 25.222,43.5381 12.7766,23.9122 15.9198,32.7851 17.1813,48.5004 1.9999,24.9149 -6.201,82.7108 -18.8153,132.6011 -12.173,48.1448 -19.3946,67.5117 -33.115,88.8079 -5.8409,9.066 -11.4487,19.2363 -12.4617,22.6006 -5.3058,17.6203 -42.471,72.2167 -60.8866,89.4437 -50.8985,47.613 -88.1299,59.1116 -199.429,61.5921 -51.0867,1.1385 -61.5209,0.5595 -79.8769,-4.4324 z"
       id="path1610"
       transform="scale(0.26458333)" />
    <path
       style="fill:#000000;stroke:#000000;stroke-width:3.01348;stroke-opacity:0"
       d="m 3563.4152,2413.9505 c -42.2457,-11.0818 -71.2344,-25.5717 -110.9855,-55.4755 -16.2185,-12.2007 -24.0717,-21.1002 -36.9151,-41.8333 -8.9727,-14.4847 -16.314,-28.1195 -16.314,-30.2997 0,-2.1802 6.1394,-12.6827 13.6432,-23.339 8.0349,-11.4106 16.1392,-27.7562 19.7152,-39.7637 3.3396,-11.2137 6.8854,-20.3886 7.8796,-20.3886 0.9942,0 9.3368,6.4413 18.5391,14.314 9.2024,7.8727 32.4017,26.955 51.554,42.4051 l 34.8225,28.0911 46.7088,-1.7302 c 98.3039,-3.6413 179.8274,-24.4981 210.468,-53.8456 13.5241,-12.9534 31.6208,-49.5589 41.0105,-82.9549 9.1921,-32.6932 10.2313,-74.172 3.2019,-127.7955 -11.6528,-88.8927 -28.6542,-120.6878 -93.8862,-175.5808 -35.8443,-30.1632 -36.8231,-31.1428 -58.7155,-58.7628 -34.45,-43.4631 -43.1888,-78.5101 -35.1889,-141.1251 6.2192,-48.6772 16.4103,-73.0461 39.0908,-93.4739 39.8159,-35.8611 70.4135,-52.8607 116.1085,-64.5082 24.8942,-6.3455 32.5359,-6.7495 124.4606,-6.5793 86.1821,0.1596 102.2378,0.9516 133.7598,6.5983 31.8465,5.7048 38.3516,7.9781 58.6189,20.4857 20.5151,12.6604 24.0936,13.891 35.7483,12.2936 7.1231,-0.9763 12.9511,-1.2712 12.9511,-0.6551 0,0.616 -2.6824,7.0313 -5.9608,14.2563 -3.2784,7.225 -5.9905,16.6021 -6.0269,20.838 -0.036,4.2359 -3.4564,12.2967 -7.5999,17.9129 -4.1435,5.6162 -7.5337,12.66 -7.5337,15.6528 0,9.1934 -11.2382,6.3952 -44.0391,-10.9654 -50.7459,-26.8583 -61.8888,-29.4464 -133.7687,-31.0696 l -61.7889,-1.3954 -32.0996,13.7105 c -45.1365,19.279 -89.3424,45.1542 -102.7732,60.1566 -6.2401,6.9703 -12.8287,18.0975 -14.6412,24.7272 -3.8826,14.2015 -1.0245,65.2174 4.7238,84.3176 6.6746,22.1779 36.5563,62.8998 78.5448,107.0381 23.9131,25.1374 64.1464,74.2323 78.869,96.24 5.2715,7.8801 16.6494,27.5496 25.2842,43.7101 19.0019,35.5632 21.1161,51.7872 13.5711,104.1414 -10.391,72.1025 -27.7583,131.577 -48.4853,166.0382 -7.3782,12.2673 -13.4375,23.5353 -13.4651,25.0402 -0.1097,5.9712 -37.7693,64.35 -49.4227,76.6134 -16.6806,17.5538 -45.705,40.448 -61.2809,48.3379 -18.4421,9.3418 -42.5267,15.0086 -85.2041,20.0477 -52.9239,6.2488 -116.3301,5.6177 -143.1784,-1.4251 z"
       id="path1649"
       transform="scale(0.26458333)" />
    <path
       style="fill:#000000;stroke:#000000;stroke-width:3.01348;stroke-opacity:0"
       d="m 3578.5024,2417.8667 c -46.4869,-9.6814 -96.0768,-33.7449 -134.7802,-65.402 -11.5507,-9.4478 -44.5216,-58.4881 -44.5216,-66.2206 0,-2.234 5.5106,-11.7573 12.2458,-21.1629 6.7352,-9.4056 15.5436,-26.7972 19.5744,-38.6481 4.0307,-11.8508 7.9781,-22.1966 8.772,-22.9904 0.7939,-0.7939 7.7563,3.8334 15.472,10.2829 7.7158,6.4494 31.1423,25.7248 52.059,42.8342 l 38.0304,31.1081 45.2021,-1.8075 c 103.0058,-4.1187 186.73,-26.1485 213.9708,-56.3007 14.8889,-16.4803 30.6332,-49.5736 39.6557,-83.3532 7.2318,-27.0754 7.6865,-32.4743 6.1431,-72.9352 -1.844,-48.3406 -10.5534,-104.6161 -20.1675,-130.3122 -13.0034,-34.7546 -39.4646,-66.2287 -93.3303,-111.011 -22.3113,-18.5488 -26.9123,-23.6883 -52.3872,-58.5177 -26.5063,-36.2395 -33.4459,-73.176 -25.0185,-133.1621 5.6814,-40.4395 17.6226,-69.7918 34.4471,-84.6731 43.5005,-38.4762 74.9053,-56.1315 120.5601,-67.7772 24.5083,-6.2517 32.7265,-6.6895 124.1831,-6.6157 86.4863,0.07 102.0736,0.827 133.3072,6.4758 30.9735,5.6017 38.2765,8.1446 58.7628,20.4611 20.941,12.5898 24.7695,13.887 36.5178,12.3726 11.6556,-1.5023 12.8746,-1.1031 10.8935,3.5677 -6.493,15.3088 -10.2067,27.0161 -10.3249,32.5486 -0.073,3.4072 -3.5224,10.79 -7.6659,16.4062 -4.1435,5.6162 -7.5337,12.66 -7.5337,15.6528 0,9.0815 -11.587,6.3735 -42.1562,-9.8523 -50.9415,-27.0392 -64.502,-30.2449 -135.6389,-32.0653 l -61.7762,-1.5808 -30.1348,12.7797 c -31.0103,13.151 -76.764,37.8052 -94.3204,50.8243 -5.4687,4.0554 -13.6051,13.6025 -18.0809,21.2158 -7.6569,13.0246 -8.1059,15.8453 -7.599,47.7412 0.3255,20.4801 2.4071,40.1625 5.2588,49.7224 6.0357,20.2342 35.3927,61.1652 71.8672,100.2009 76.511,81.8834 124.3578,154.6887 127.9909,194.755 4.5077,49.7118 -24.0655,176.5943 -49.1185,218.1157 -5.9921,9.931 -12.885,22.8026 -15.3175,28.6035 -11.2698,26.8753 -42.387,70.7562 -65.2125,91.9615 -38.8408,36.0839 -63.3913,46.197 -131.7379,54.2669 -34.2088,4.0391 -113.2748,5.5767 -128.0912,2.4911 z"
       id="path1688"
       transform="scale(0.26458333)" />
    <path
       style="fill:#000000;stroke:#000000;stroke-width:3.01348;stroke-opacity:0"
       d="m 3576.9956,2417.752 c -40.2603,-6.6707 -100.8987,-37.2242 -137.6949,-69.3795 -10.0101,-8.7476 -40.1055,-55.1709 -40.0929,-61.8449 0,-2.1009 5.3636,-11.7051 11.9105,-21.3427 11.3861,-16.7616 24.244,-45.7908 24.244,-54.7357 0,-8.8619 6.7749,-7.7056 20.1819,3.4446 7.6435,6.3569 30.9776,25.4381 51.8536,42.4027 43.7221,35.5301 35.7432,33.5386 111.7865,27.9008 92.073,-6.8263 162.2154,-28.1517 187.5676,-57.0263 12.7509,-14.5224 30.5624,-53.6016 38.5543,-84.5898 5.8522,-22.6915 6.4083,-30.6009 4.8723,-69.3099 -2.6819,-67.5855 -12.9524,-119.6048 -30.046,-152.1805 -10.2514,-19.5365 -56.7742,-68.8238 -87.1915,-92.3727 -22.822,-17.6686 -59.1467,-65.9052 -68.1577,-90.5086 -9.5168,-25.9841 -11.285,-59.4653 -5.2648,-99.686 6.3949,-42.7245 17.7439,-68.1531 38.6385,-86.5734 41.0744,-36.2105 65.6381,-50.1685 110.2407,-62.6426 29.2367,-8.1767 29.3566,-8.1841 130.215,-8.0249 89.1252,0.1406 104.9145,0.8964 134.7812,6.4517 28.8611,5.3684 37.4004,8.3859 58.1417,20.5457 21.4445,12.5721 25.7182,14.0283 36.2336,12.3469 6.5569,-1.0485 11.9209,-1.5513 11.9201,-1.1174 -9e-4,0.4339 -2.713,7.9229 -6.027,16.6421 -3.314,8.7191 -6.0254,18.2872 -6.0254,21.2622 0,2.975 -3.3902,10.0043 -7.5337,15.6205 -4.1435,5.6162 -7.5337,12.66 -7.5337,15.6528 0,9.1035 -10.3016,6.4457 -47.586,-12.2767 -52.7899,-26.5086 -62.7057,-28.5821 -137.7428,-28.8037 l -63.2829,-0.1869 -43.6954,21.6073 c -73.6112,36.4008 -90.1801,50.0289 -96.835,79.6478 -4.6385,20.6446 1.6133,74.6873 10.7188,92.6561 10.4614,20.6445 38.6359,57.3172 68.6491,89.3555 53.2147,56.8053 86.7538,102.0893 112.7632,152.251 l 11.6822,22.5306 -0.3135,36.1617 c -0.5226,60.2609 -24.6709,160.2635 -48.0272,198.8894 -6.0133,9.9444 -12.9235,22.8271 -15.356,28.628 -11.4074,27.2034 -42.3798,70.7495 -65.7892,92.4973 -38.2141,35.5017 -67.4279,47.1451 -137.8413,54.9379 -27.8245,3.0794 -106.8528,3.8314 -122.9179,1.1696 z"
       id="path1727"
       transform="scale(0.26458333)" />
    <rect
       style="fill:#ff2a2a;stroke:#000000;stroke-width:0.238319;stroke-opacity:0"
       id="rect1346"
       width="1934.3833"
       height="653.12866"
       x="-8.1000195"
       y="-7.2979145" />
    <path
       style="fill:#0000ff;stroke:#000000;stroke-width:0.247606px;stroke-linecap:butt;stroke-linejoin:miter;stroke-opacity:1"
       d="M -12.397895,526.55507 970.81797,447.54752 828.45894,569.97363 1979.8462,429.75302 c 0,0 -54.7535,669.07298 -57.8823,669.07298 -3.1287,0 -1957.045373,-9.2532 -1957.045373,-9.2532 z"
       id="path857" />
    <path
       style="fill:#000000;stroke:#000000;stroke-width:0.264583px;stroke-linecap:butt;stroke-linejoin:miter;stroke-opacity:1"
       d="m 781.79655,415.13257 69.36642,220.85638 39.86578,-3.18926 81.32617,-254.34364 -47.0416,3.98659 -43.05503,180.19328 -59.79867,-157.86846 z"
       id="path891" />
    <path
       style="fill:#000000;stroke:#000000;stroke-width:0.797317;stroke-opacity:0"
       d="m 995.67199,615.26392 c -13.40118,-3.50824 -30.7217,-14.26265 -35.995,-22.34951 -4.69541,-7.20064 -6.27746,-10.02371 -6.26354,-11.1769 0.007,-0.60603 1.61182,-3.75962 3.56555,-7.00799 1.95377,-3.2484 4.14462,-7.7333 4.86863,-9.96646 0.72398,-2.23316 1.60676,-4.3769 1.9617,-4.76382 0.35552,-0.38756 6.83617,4.22764 14.42963,10.27607 l 13.78424,10.97957 13.5777,-0.44749 c 26.8964,-0.88643 47.2913,-6.45215 55.0294,-15.01738 3.6318,-4.02002 7.0778,-10.9778 9.7078,-19.60112 1.9003,-6.23094 2.1337,-8.25937 2.0911,-18.17608 -0.083,-19.46521 -3.6552,-36.28184 -9.666,-45.5095 -3.0301,-4.65172 -14.5218,-16.47013 -21.7914,-22.41082 -3.8268,-3.12729 -12.1268,-13.3278 -15.4582,-18.99785 -6.0696,-10.33039 -5.5601,-32.58214 1.0495,-45.8289 2.5818,-5.17446 3.869,-6.68594 9.6188,-11.29464 7.8017,-6.2534 14.711,-10.02197 24.0585,-13.12235 l 6.7772,-2.24785 28.3047,-0.0209 c 34.1065,-0.0251 39.3527,0.63415 50.4457,6.33984 5.2262,2.68814 7.8941,3.59632 10.5644,3.59632 1.9648,0 3.5724,0.23228 3.5724,0.51615 0,1.15168 -3.4551,10.53923 -5.4466,14.79838 -1.3903,2.97326 -2.6171,4.56248 -3.5391,4.58457 -0.7762,0.0185 -4.6268,-1.58115 -8.5569,-3.55499 -3.9302,-1.97382 -9.9328,-4.55761 -13.3391,-5.74173 -5.8523,-2.03432 -7.1616,-2.17016 -23.7671,-2.46562 l -17.5736,-0.31269 -7.4345,3.34756 c -11.159,5.02463 -21.4161,11.11036 -25.6571,15.22278 -4.5207,4.38375 -5.1644,7.14005 -4.4969,19.25473 0.3708,6.72873 0.8066,8.66916 2.8816,12.83245 3.0934,6.20641 8.2375,13.01055 18.3653,24.2918 15.7554,17.54976 22.59,26.91037 29.0583,39.79793 3.4095,6.79307 3.6936,7.81865 3.6936,13.3309 0,8.09257 -1.9815,20.95685 -5.2258,33.92599 -2.2478,8.98564 -3.7028,12.73942 -8.8077,22.72347 -8.5602,16.74167 -12.9788,23.31178 -20.3267,30.22415 -7.3264,6.89216 -14.6445,10.91515 -23.2429,12.77752 -15.1243,3.27578 -40.5814,3.87414 -50.81761,1.19441 z"
       id="path1961" />
    <path
       style="fill:#ffd42a;stroke:#000000;stroke-width:3.01348;stroke-opacity:0"
       d="m 3216.8389,2397.9733 c -0.7502,-2.0718 -49.6437,-157.6801 -108.6522,-345.7964 -59.0085,-188.1162 -117.1629,-373.2189 -129.2319,-411.3394 -12.0691,-38.1205 -21.5585,-69.7602 -21.0876,-70.3106 0.4708,-0.5504 34.3251,-9.4483 75.2316,-19.7731 l 74.3756,-18.7725 2.9459,7.7192 c 1.6203,4.2456 47.6363,125.6968 102.258,269.8917 125.7878,332.0653 120.5793,318.5726 122.308,316.8439 0.8055,-0.8054 37.8066,-153.5241 82.2248,-339.3747 44.4181,-185.8506 81.3188,-338.4687 82.0013,-339.1512 1.1186,-1.1187 172.1862,-16.3358 173.0846,-15.3965 1.0003,1.0457 -305.0336,954.0774 -306.9741,955.9599 -1.8604,1.8047 -117.9033,12.6647 -140.2451,13.1249 -3.7812,0.078 -7.4887,-1.5535 -8.2389,-3.6252 z"
       id="path877"
       transform="scale(0.26458333)" />
    <path
       style="fill:#66ff00;stroke:#000000;stroke-width:3.01348;stroke-opacity:0"
       d="m 3775.885,2326.3925 c -19.957,-3.4075 -58.5681,-19.0919 -84.6792,-34.3981 -36.7335,-21.5328 -62.4429,-47.4681 -80.4502,-81.1568 l -6.2008,-11.6008 15.8781,-30.5879 c 8.7329,-16.8233 17.4124,-35.0932 19.2879,-40.5997 3.4052,-9.9984 3.4212,-10.0052 11.8289,-5.0387 4.6304,2.7353 28.0589,20.6233 52.0632,39.7511 l 43.6441,34.7778 52.7358,-1.7179 c 104.3241,-3.3986 179.9306,-23.9909 209.9065,-57.1707 12.6074,-13.9548 30.9598,-52.118 38.6864,-80.4469 4.049,-14.8452 5.2936,-30.3599 5.1403,-64.0806 -0.292,-64.2307 -9.6648,-118.6129 -26.6128,-154.4075 -10.0838,-21.2973 -37.2141,-52.6965 -79.0135,-91.4462 -41.9411,-38.881 -70.5674,-76.0739 -79.2084,-102.9119 -12.7607,-39.6334 -6.7603,-112.9883 12.2982,-150.3461 17.5242,-34.3503 65.7803,-69.7555 124.1155,-91.0628 l 25.2187,-9.2114 120.5391,1.3547 c 79.0993,0.8889 125.201,2.5834 134.0996,4.929 7.4584,1.966 25.7011,9.1531 40.5394,15.9715 14.8559,6.8264 33.4747,13.0212 41.4353,13.7861 7.9511,0.764 14.4566,2.5446 14.4566,3.957 0,6.5261 -20.1657,54.9302 -25.8594,62.0708 l -6.3897,8.0135 -37.3647,-16.8253 c -54.6687,-24.6172 -60.7654,-25.8658 -136.8093,-28.018 l -66.2965,-1.8764 -39.6311,19.506 c -48.596,23.9184 -83.0804,46.8026 -92.8864,61.6402 -9.5364,14.4296 -12.0497,36.8144 -8.0786,71.9528 4.6497,41.1441 16.4403,61.0874 76.7273,129.782 64.9138,73.9666 87.2831,104.7075 111.8568,153.7186 13.0715,26.0706 13.7876,28.8029 13.7761,52.5601 -0.015,30.0408 -5.9224,68.7367 -18.4547,120.8747 -7.6354,31.7657 -13.4101,46.8964 -32.7779,85.8841 -28.7278,57.8295 -47.4342,86.8136 -71.6174,110.966 -37.5144,37.4665 -68.6135,51.9637 -128.2387,59.7798 -36.9137,4.839 -119.3845,5.7735 -143.6645,1.6279 z"
       id="path953"
       transform="scale(0.26458333)" />
    <path
       style="fill:#ff6600;stroke:#000000;stroke-width:3.01348;stroke-opacity:0"
       d="m 3214.2379,2384.4126 c -3.9608,-12.2228 -181.7925,-578.573 -236.7079,-753.8562 -10.0797,-32.1732 -17.981,-58.766 -17.5584,-59.095 2.1684,-1.6886 145.2644,-37.2508 146.1852,-36.33 0.5942,0.5943 49.6421,129.0382 108.9954,285.4309 122.4824,322.7352 117.0505,308.9621 120.3766,305.225 1.3674,-1.5365 6.0162,-17.7104 10.3306,-35.9419 4.3144,-18.2315 37.818,-157.2281 74.4526,-308.8813 36.6345,-151.6531 69.5086,-288.2017 73.0536,-303.4412 l 6.4455,-27.7083 10.7176,-1.6591 c 18.1392,-2.8079 153.8345,-14.2577 156.6206,-13.2155 2.7665,1.0349 -4.6633,24.9444 -105.654,339.9972 -110.9984,346.2732 -196.1684,610.1898 -197.3382,611.4928 -1.9088,2.1259 -103.7795,12.0261 -125.1819,12.1656 l -20.0988,0.131 z"
       id="path1054"
       transform="scale(0.26458333)" />
    <path
       style="fill:#ff6600;stroke:#000000;stroke-width:3.01348;stroke-opacity:0"
       d="m 3755.3992,2318.9436 c -65.3609,-22.8184 -114.2414,-58.8596 -139.3523,-102.7487 l -9.3551,-16.3511 18.9079,-38.4251 c 10.3994,-21.1338 19.2234,-38.901 19.609,-39.4828 0.879,-1.3261 14.0946,8.4733 59.8597,44.3862 19.8889,15.6073 37.561,29.4536 39.2713,30.7695 4.5521,3.5026 106.5399,-2.1494 143.2025,-7.9361 67.2472,-10.614 113.356,-31.9106 132.0028,-60.9691 17.3562,-27.0473 30.6305,-64.2618 34.2324,-95.9706 4.2944,-37.8057 -1.0492,-110.5833 -10.9996,-149.8089 -12.7465,-50.2484 -24.4948,-67.4019 -92.1806,-134.591 -46.577,-46.2352 -69.2481,-74.9427 -78.58,-99.5021 -11.8915,-31.2958 -10.3786,-89.2886 3.4878,-133.6998 13.6596,-43.7491 59.4894,-81.4822 133.6509,-110.0393 l 23.4911,-9.0456 124.1406,2.503 124.1407,2.5031 37.5254,15.0385 c 20.639,8.2712 42.6107,15.9555 48.8259,17.0762 6.2153,1.1207 11.3006,3.44 11.3006,5.154 0,5.0329 -15.3027,42.459 -21.7167,53.1132 -3.2429,5.3866 -7.2182,9.7938 -8.8341,9.7938 -1.6158,0 -18.6912,-6.8588 -37.9453,-15.2418 -50.8058,-22.1203 -59.7233,-23.881 -134.9135,-26.6389 l -66.2965,-2.4317 -39.1752,19.5148 c -65.3452,32.551 -93.1231,53.4708 -100.5473,75.723 -7.9977,23.9713 -1.8834,82.2616 11.3496,108.2003 7.5567,14.8124 33.829,48.7742 68.0592,87.9793 58.0138,66.4451 84.8663,103.7542 107.3894,149.2077 11.5798,23.3689 12.0389,25.4239 11.9621,53.5378 -0.1061,38.832 -9.5195,93.274 -24.6622,142.6321 -8.0631,26.2819 -43.4797,97.4261 -64.278,129.1204 -26.4852,40.3605 -64.0549,73.4177 -97.9557,86.1903 -33.8972,12.7713 -53.4762,15.2948 -129.7941,16.7295 -73.0868,1.3739 -74.0515,1.3106 -95.8227,-6.2901 z"
       id="path1156"
       transform="scale(0.26458333)" />
    <path
       style="fill:#ff6600;stroke:#000000;stroke-width:3.01348;stroke-opacity:0"
       d="m 3755.0263,2317.3417 c -64.9225,-23.8049 -117.1769,-63.654 -140.1992,-106.9156 l -5.864,-11.0191 18.7893,-37.721 18.7893,-37.7209 11.1825,8.3364 c 6.1503,4.585 28.3281,21.6562 49.2838,37.9361 43.9791,34.1659 35.3815,32.2134 116.528,26.4634 100.5147,-7.1223 163.3737,-26.9359 191.7726,-60.4479 12.5883,-14.8548 27.8603,-49.6516 35.179,-80.1546 11.0555,-46.0769 4.8148,-141.9194 -12.7526,-195.8511 -9.5291,-29.2545 -25.6977,-50.947 -79.7258,-106.9638 -78.7474,-81.6459 -88.9927,-98.7305 -91.1118,-151.9335 -2.2588,-56.7117 9.4689,-98.9182 35.7969,-128.8284 17.0523,-19.3724 57.4799,-45.4255 95.482,-61.5322 l 32.1173,-13.6124 123.6676,2.0805 123.6675,2.0806 39.1752,14.6699 c 21.5464,8.0685 43.2434,15.9527 48.2156,17.5206 7.173,2.2618 8.9315,4.4344 8.513,10.5171 -0.7584,11.0255 -20.9753,53.4516 -25.4706,53.4516 -2.084,0 -22.1742,-7.3844 -44.6448,-16.4097 -46.9797,-18.8695 -62.0141,-21.465 -142.0169,-24.5174 l -52.9456,-2.0201 -42.1021,21.3629 c -54.3424,27.5738 -82.8575,47.5564 -93.3067,65.3865 -7.7971,13.3048 -7.9873,14.7754 -6.5282,50.494 0.8767,21.4623 3.5479,43.2526 6.4116,52.3018 6.1902,19.5616 29.2005,51.768 77.1821,108.0287 20.7177,24.2924 47.3735,57.1012 59.2352,72.9085 25.5454,34.0426 53.9719,87.3581 56.7328,106.4053 4.0725,28.0959 -8.1643,108.6218 -24.2819,159.7906 -7.991,25.3689 -44.856,100.2814 -62.988,127.9963 -17.4843,26.7249 -59.889,67.7338 -81.9946,79.2956 -36.2886,18.9799 -56.4496,22.2324 -145.5929,23.4876 -73.8387,1.0397 -81.0884,0.673 -96.1956,-4.8663 z"
       id="path1232"
       transform="scale(0.26458333)" />
    <path
       style="fill:#ffcc00;stroke:#000000;stroke-width:3.01348;stroke-opacity:0"
       d="m 3218.2519,2390.8243 c -7.4164,-19.5066 -252.9756,-805.1697 -253.6857,-811.6636 -0.7919,-7.2425 0.7413,-7.8326 59.4567,-22.8816 33.1482,-8.4961 65.052,-16.3429 70.8974,-17.4373 l 10.628,-1.9899 9.4738,24.8715 c 5.2107,13.6794 50.753,133.3567 101.2052,265.9496 112.6621,296.086 114.264,300.1428 118.0212,298.8904 4.5464,-1.5154 4.9037,-2.9287 87.7542,-347.106 42.2911,-175.6856 77.5432,-321.6036 78.3379,-324.2621 1.1266,-3.7684 8.7309,-5.5755 34.5035,-8.1995 62.2447,-6.3373 126.4148,-10.6864 128.399,-8.7022 3.4504,3.4504 -6.7326,36.1325 -157.4697,505.3982 -125.1186,389.5113 -142.7861,442.9809 -146.3705,442.9809 -1.8454,0 -23.1402,1.9388 -47.3219,4.3084 -24.1816,2.3695 -54.5474,4.9825 -67.4794,5.8065 -22.8562,1.4564 -23.5921,1.2899 -26.3497,-5.9633 z"
       id="path1271"
       transform="scale(0.26458333)" />
    <path
       style="fill:#ffa800;stroke:#000000;stroke-width:3.01348;stroke-opacity:0;fill-opacity:1"
       d="m 3748.2279,2314.4955 c -60.4826,-22.4847 -110.992,-61.8065 -133.8051,-104.1677 l -5.6622,-10.5142 18.8367,-37.8161 18.8366,-37.8161 9.7297,6.8333 c 5.3512,3.7583 24.6463,18.4972 42.8778,32.753 52.9577,41.4094 41.3674,37.801 108.0934,33.6527 87.5196,-5.4411 132.002,-14.2636 170.9574,-33.9075 31.3378,-15.8025 44.064,-30.5864 60.3717,-70.1329 14.6471,-35.5198 18.7271,-63.4227 16.8087,-114.956 -2.7321,-73.3941 -14.0571,-122.7489 -35.5523,-154.9382 -6.7398,-10.093 -34.024,-41.0791 -60.6315,-68.8581 -81.3539,-84.9358 -90.1611,-99.5721 -92.2332,-153.2776 -2.1845,-56.6226 9.6275,-99.5053 35.3854,-128.4633 17.6123,-19.8005 57.8252,-45.7448 95.9457,-61.9017 l 32.1277,-13.6169 124.8753,2.1762 c 116.3631,2.0278 125.9222,2.6004 140.2314,8.3993 8.4457,3.4228 29.5945,11.3421 46.9974,17.5985 30.1599,10.8427 31.6121,11.7606 31.014,19.6037 -0.9101,11.9337 -20.9287,52.5515 -25.9001,52.5515 -2.323,0 -18.7298,-6.0775 -36.4596,-13.5057 -48.6487,-20.3819 -59.3552,-22.4733 -134.5348,-26.2796 l -67.9425,-3.4399 -45.1925,23.2974 c -51.6581,26.6306 -77.1002,44.4511 -89.2147,62.4892 -7.815,11.6362 -8.4503,14.7756 -8.402,41.516 0.063,34.9616 6.1468,65.7388 16.4792,83.3697 9.1305,15.5801 34.5445,47.8878 73.3277,93.2186 62.6233,73.1957 105.7932,140.8988 110.4861,173.2748 4.0725,28.0959 -8.1643,108.6218 -24.2819,159.7906 -8.1039,25.7271 -45.1529,100.8441 -63.1301,127.9963 -16.9187,25.5535 -52.1272,61.4759 -72.0002,73.4601 -40.2683,24.2834 -76.4621,30.5925 -174.1606,30.3583 -59.6532,-0.1428 -61.7049,-0.3559 -84.2786,-8.7477 z"
       id="path1347"
       transform="scale(0.26458333)" />
    <path
       style="fill:#ffa800;fill-opacity:1;stroke:#000000;stroke-width:3.01348;stroke-opacity:0"
       d="m 3199.0819,2325.6499 c -30.7089,-95.4034 -205.8181,-655.6883 -232.572,-744.145 -0.9462,-3.1286 0.8177,-6.3516 4.5775,-8.3637 7.6564,-4.0976 120.0828,-33.2039 128.2723,-33.2087 5.2163,0 19.1717,34.5505 103.746,256.8738 97.1917,255.4914 124.8774,326.791 128.173,330.0866 4.1847,4.1847 9.02,-7.5622 18.5544,-45.0759 5.6177,-22.103 41.4219,-169.6913 79.5649,-327.9741 38.1431,-158.2829 70.5969,-290.7113 72.1196,-294.2855 3.438,-8.0698 7.9101,-9.009 69.4511,-14.5858 64.9523,-5.8859 90.4043,-5.952 90.4043,-0.2349 0,7.7432 -17.9126,64.877 -128.5609,410.0576 -89.5171,279.2593 -157.0541,487.456 -165.774,511.0323 l -7.3365,19.8358 -59.3542,5.0664 c -32.6449,2.7866 -63.71,5.048 -69.0337,5.0254 l -9.6794,-0.041 z"
       id="path2570"
       transform="scale(0.26458333)" />
    <path
       style="fill:#5f8dd3;stroke:#000000;stroke-width:3.01348;stroke-opacity:0"
       d="m 7147.9643,4150.5069 c -53.8658,-0.3533 -412.5448,-2.0916 -797.0643,-3.8629 -905.092,-4.1695 -4318.9307,-20.1301 -5144.003,-24.0496 -351.37125,-1.6692 -795.82125,-3.9224 -987.66664,-5.0072 l -348.80981,-1.9723 v -12.8452 c 0,-24.0564 84.496392,-2108.9724 85.512518,-2109.9885 1.128839,-1.1288 3031.958832,-244.9655 3044.853732,-244.9649 l 8.1687,3e-4 63.0479,200.9764 c 41.7918,133.2177 61.8573,201.3732 59.5162,202.1536 -1.9425,0.6475 -3.5318,2.3778 -3.5318,3.8451 0,1.4672 1.9419,1.9225 4.3156,1.0117 3.2401,-1.2434 6.6094,5.726 13.5217,27.9692 68.173,219.3754 68.1881,219.4179 77.4614,220.2782 14.6452,1.3585 142.8415,-10.206 145.5054,-13.126 1.3775,-1.5099 21.8676,-63.7682 45.5333,-138.3517 23.666,-74.5835 43.1662,-135.7737 43.3335,-135.9782 1.5797,-1.9286 586.8774,-70.9977 588.4357,-69.4394 2.9173,2.9173 -6.6893,32.6537 -18.7523,58.0458 -18.3002,38.5214 -45.4378,57.6887 -101.9869,72.0335 -38.2398,9.7004 -69.8147,13.7299 -126.8691,16.1907 l -48.2156,2.0796 -28.628,-22.8957 c -42.2764,-33.8111 -73.9438,-57.1495 -77.5449,-57.1495 -1.7478,0 -6.8342,9.1334 -11.3032,20.2964 -4.469,11.1631 -12.6006,27.9322 -18.0703,37.2649 -14.8471,25.3331 -14.892,26.2595 -2.3283,47.9946 22.2473,38.4878 61.9134,69.7598 120.4894,94.9921 29.7638,12.8211 52.3079,16.3711 104.1415,16.3995 77.3164,0.042 132.3413,-9.4601 166.9941,-28.8391 43.1015,-24.1038 76.6668,-65.1834 115.4671,-141.3175 21.194,-41.5871 30.0633,-65.8898 39.0697,-107.0543 4.2083,-19.2355 6.036,-22.9326 12.2853,-24.851 11.3123,-3.4726 3306.0194,-403.644 3307.8908,-401.7726 1.9111,1.9112 4.0841,-25.2791 -52.2781,654.1349 -94.1018,1134.3425 -154.1607,1821.5595 -162.6915,1861.5746 -1.4471,6.7881 -3.2223,8.1586 -9.8143,7.577 -4.4262,-0.3906 -52.1196,-0.9992 -105.9855,-1.3525 z"
       id="path922"
       transform="scale(0.26458333)" />
    <path
       style="fill:#5f8dd3;stroke:#000000;stroke-width:3.01348;stroke-opacity:0"
       d="m 3240.2774,1872.2788 c -28.5696,-75.6781 -51.3259,-138.2155 -50.5696,-138.9718 1.1826,-1.1826 240.6208,-21.5302 241.4307,-20.5169 0.163,0.2039 -12.0415,51.4859 -27.1213,113.9599 l -27.4177,113.5891 -40.4076,34.8246 c -22.2242,19.1535 -41.2091,34.7992 -42.1886,34.7682 -0.9796,-0.031 -25.1563,-61.9749 -53.7259,-137.6531 z"
       id="path961"
       transform="scale(0.26458333)" />
    <path
       style="fill:#ff8080;stroke:#000000;stroke-width:3.01348;stroke-opacity:0"
       d="m 3567.9552,1772.9506 c 0,-4.054 21.6493,-68.6121 23.8194,-71.0291 1.8391,-2.0484 67.0876,-8.8499 68.7691,-7.1684 0.4203,0.4202 -15.833,15.0578 -36.1184,32.528 -53.1627,45.7847 -56.4701,48.4595 -56.4701,45.6695 z"
       id="path1000"
       transform="scale(0.26458333)" />
    <path
       style="fill:#ff8080;stroke:#000000;stroke-width:3.01348;stroke-opacity:0"
       d="m 3459.5246,2111.8777 c 0.03,-0.5159 23.478,-74.1654 52.1066,-163.6657 l 52.0518,-162.7277 54.0759,-46.7088 c 61.3752,-53.0138 61.013,-50.6506 7.0021,-45.6965 -17.1551,1.5736 -31.3986,2.6675 -31.652,2.431 -0.2531,-0.2365 18.5265,-59.8498 41.733,-132.4742 23.2062,-72.6244 41.5962,-132.6413 40.8667,-133.371 -1.533,-1.533 -177.7412,13.4632 -179.5592,15.2814 -0.6648,0.6646 -15.1771,59.7012 -32.2499,131.1924 -17.0728,71.4912 -31.6129,130.5552 -32.3111,131.2533 -0.6979,0.6981 -52.0038,5.3176 -114.013,10.2653 -62.0092,4.9479 -117.0079,9.4004 -122.2191,9.8946 l -9.4749,0.8986 -36.8681,-98.049 c -20.2774,-53.927 -37.745,-99.0328 -38.8172,-100.2351 -1.8042,-2.0234 -152.7137,34.5737 -155.9624,37.8225 -0.8005,0.8004 10.6457,39.8939 25.4358,86.8743 23.1715,73.6033 26.2233,85.6957 22.0617,87.4185 -3.9447,1.633 -3015.724916,244.0159 -3028.099212,243.6962 -3.005763,-0.078 -3.766845,-203.4584 -3.766845,-1006.5982 V -27.121281 H 3623.7045 7277.5438 v 837.260981 837.261 l -26.3679,3.2075 c -14.5024,1.7641 -714.2335,86.9604 -1554.9583,189.325 -840.7245,102.3646 -1529.1045,185.5546 -1529.7328,184.8666 -0.6283,-0.688 0.6582,-12.0994 2.8586,-25.3587 2.2008,-13.2593 4.073,-36.3841 4.1607,-51.3885 0.1507,-25.8909 -0.4659,-28.5774 -12.1202,-52.7358 -18.4768,-38.3012 -46.1746,-77.9544 -89.1476,-127.6273 -62.2003,-71.8977 -75.7118,-89.337 -88.0872,-113.6941 -10.3625,-20.395 -11.9304,-26.3914 -13.8259,-52.8762 -2.4707,-34.5191 0.628,-50.2002 12.772,-64.6326 11.677,-13.877 47.5421,-36.5369 91.1239,-57.5725 l 37.6685,-18.1815 66.2428,2.112 c 74.4895,2.375 78.8723,3.3237 134.4007,29.0939 17.5387,8.1397 34.1704,14.7993 36.9594,14.7993 2.7887,0 7.7543,-4.4072 11.0341,-9.7938 8.4281,-13.8403 24.6406,-59.7422 22.7976,-64.5452 -0.8968,-2.3365 -6.1816,-4.0113 -12.6581,-4.0113 -6.6857,0 -22.0418,-5.0326 -38.5165,-12.6228 -45.7364,-21.0719 -46.971,-21.2275 -180.2736,-22.7243 -117.2212,-1.3163 -120.1551,-1.205 -140.1266,5.3151 -57.6876,18.8334 -112.3135,56.4757 -129.7199,89.3889 -15.2687,28.871 -22.2006,59.8486 -22.457,100.3573 -0.4346,68.5642 14.0846,94.4014 98.6708,175.5868 23.7739,22.818 48.7267,49.7258 55.4507,59.7953 14.2902,21.3997 25.5991,54.9711 32.0754,95.2168 4.7203,29.3336 7.4855,116.2624 3.8154,119.9387 -1.1195,1.1213 -128.5896,17.4309 -283.2668,36.2436 -154.6771,18.8126 -286.9946,35.0436 -294.0386,36.0688 -7.044,1.0252 -12.7826,1.4419 -12.7528,0.926 z"
       id="path1076"
       transform="scale(0.26458333)" />
    <path
       style="fill:#ff8080;stroke:#000000;stroke-width:3.01348;stroke-opacity:0"
       d="m 3314.9837,2068.9355 c -10.3605,-27.294 -18.3642,-50.9477 -17.7859,-52.5637 1.8294,-5.1127 72.1983,-64.3137 74.1391,-62.3729 1.4129,1.4128 -34.386,159.9872 -36.9706,163.765 -0.2999,0.4384 -9.0221,-21.5343 -19.3826,-48.8284 z"
       id="path1115"
       transform="scale(0.26458333)" />
    <path
       style="fill:#80b3ff;stroke:#000000;stroke-width:3.01348;stroke-opacity:0"
       d="m 3571.4687,1765.8968 c 0.8956,-2.4862 5.9614,-17.6033 11.2573,-33.5936 10.9128,-32.9504 7.3066,-30.5413 51.5257,-34.4215 26.3612,-2.3132 28.325,-5.8425 -19.5876,35.2024 -43.4593,37.2299 -45.2869,38.6182 -43.1954,32.8127 z"
       id="path1228"
       transform="scale(0.26458333)" />
    <path
       style="fill:#80b3ff;stroke:#000000;stroke-width:3.01348;stroke-opacity:0"
       d="m 6497.0536,4146.2393 c -239.496,-1.2867 -1036.1836,-5.1319 -1770.417,-8.5449 -734.2333,-3.4129 -1610.2507,-7.5459 -1946.7053,-9.1845 -336.4545,-1.6385 -1072.7973,-5.0363 -1636.3173,-7.5507 -563.51993,-2.5144 -1080.453556,-5.4033 -1148.7413686,-6.4198 l -124.1596614,-1.8482 1.35105,-18.4827 c 0.74308,-10.1654 2.7527,-57.1305 4.46582,-104.3667 7.05952,-194.6533 62.488113,-1567.7663 75.095883,-1860.3236 3.130959,-72.6524 6.489752,-132.8924 7.463985,-133.8667 1.983346,-1.9833 151.900862,-14.3685 1065.491992,-88.0234 1412.783,-113.9006 1980.9996,-159.1907 1982.4515,-158.0129 1.6535,1.3415 82.2501,258.8221 104.3696,333.4282 10.6843,36.0369 18.7089,67.3904 17.8322,69.6745 -0.8766,2.2841 0.4216,4.9263 2.8851,5.8716 2.6588,1.0203 10.1416,19.8496 18.4172,46.3444 37.9502,121.5006 62.1855,193.3517 66.3962,196.8463 8.7599,7.2699 147.2984,-4.4199 153.5399,-12.9556 1.8295,-2.502 22.2633,-63.8584 45.4083,-136.3477 33.6515,-105.3957 43.2892,-132.3101 48.1086,-134.3522 6.049,-2.563 136.9935,-18.5923 400.7923,-49.0621 77.8983,-8.9976 150.1087,-17.2888 160.4676,-18.4251 22.3452,-2.4509 22.454,-2.1878 11.3168,27.4011 -21.9131,58.2171 -45.8663,79.6142 -107.7791,96.2772 -33.0379,8.8917 -82.1468,15.4014 -136.9489,18.1535 l -39.7954,1.9984 -34.7773,-27.536 c -42.3848,-33.5598 -67.6938,-51.4718 -72.7272,-51.4718 -3.7235,0 -43.4625,77.9992 -43.4073,85.1994 0.057,7.4398 18.2969,35.2601 34.8168,53.1034 19.9377,21.5354 48.3208,41.1061 83.5748,57.6266 42.1977,19.7745 56.5144,21.8853 136.2187,20.0831 95.5417,-2.1601 129.581,-10.4577 171.9933,-41.9258 47.5752,-35.2987 106.3506,-134.8393 127.7264,-216.3136 4.9376,-18.8194 10.7138,-35.9128 12.8362,-37.9853 4.538,-4.4311 67.7062,-12.3675 1076.6564,-135.2698 960.5436,-117.0057 2030.0701,-246.3476 2154.6352,-260.5682 29.8334,-3.4058 59.3278,-6.9702 65.5431,-7.9208 l 11.3005,-1.7283 v 14.7327 c 0,31.0339 -131.8815,1607.5024 -177.9262,2126.8715 -15.6013,175.9788 -32.7426,352.3084 -35.5725,365.9313 l -2.2339,10.7532 -164.0997,0.2649 c -90.2552,0.1455 -360.0513,-0.7881 -599.5473,-2.0748 z"
       id="path1267"
       transform="scale(0.26458333)" />
    <path
       style="fill:#3771c8;stroke:#000000;stroke-width:3.01348;stroke-opacity:0"
       d="m 3286.1421,1986.7112 c -25.5261,-62.8737 -94.2558,-249.7313 -92.4628,-251.3816 2.309,-2.1251 232.3329,-21.9761 234.1057,-20.2032 0.8166,0.8165 -30.5215,134.9148 -50.9731,218.1183 -1.1842,4.8178 -48.3932,47.522 -77.458,70.0668 -4.3321,3.3603 -5.9158,1.3704 -13.2118,-16.6003 z"
       id="path1306"
       transform="scale(0.26458333)" />
    <path
       style="fill:#3771c8;stroke:#000000;stroke-width:3.01348;stroke-opacity:0"
       d="m 6120.3691,4143.2859 c -808.4218,-4.3024 -2878.1739,-14.2234 -4339.405,-20.8002 -1257.91735,-5.6618 -1833.486619,-9.0044 -1870.615002,-10.8634 -36.600798,-1.8326 -36.915078,-1.9108 -36.915078,-9.1879 0,-4.0368 2.0332,-57.1257 4.51821,-117.9755 2.48502,-60.8497 9.28633,-231.3256 15.11403,-378.8352 27.776131,-703.0641 60.309994,-1494.7526 64.241631,-1563.2745 1.308677,-22.8081 3.652402,-42.7001 5.208274,-44.2045 3.83667,-3.7097 151.361425,-15.8746 1773.245835,-146.2227 1067.1425,-85.7644 1269.0527,-101.7177 1270.3946,-100.3759 3.0996,3.0999 106.1897,337.4759 115.913,375.9677 3.5586,14.088 9.5859,32.3949 13.394,40.682 3.8081,8.287 17.3905,48.2909 30.183,88.8975 27.3147,86.7039 45.1467,137.615 50.4302,143.9813 8.1891,9.8673 146.8732,-1.9609 155.1129,-13.2293 2.1417,-2.9291 17.5288,-47.4462 34.1936,-98.9269 39.532,-122.1215 54.0594,-163.6574 58.5407,-167.3764 4.6564,-3.8647 51.3234,-10.0423 271.2791,-35.9111 257.5567,-30.291 302.2592,-35.0536 304.8357,-32.4772 3.6665,3.6667 -11.2954,43.7171 -23.2014,62.1054 -25.3198,39.1058 -61.9959,56.5177 -143.0144,67.8958 -42.9182,6.0274 -119.5654,10.9016 -123.5046,7.854 -1.6836,-1.3027 -18.6561,-14.5369 -37.7163,-29.4093 -42.4322,-33.1091 -61.4584,-46.1397 -67.3696,-46.1397 -5.4882,0 -44.129,74.6054 -44.129,85.2015 0,10.0266 19.8687,39.8715 39.2339,58.9337 30.013,29.5434 80.7991,58.3666 121.0932,68.7255 16.0001,4.1132 30.5491,4.6044 92.8048,3.1328 97.5242,-2.3052 126.1676,-8.281 164.3954,-34.2975 55.5733,-37.8214 107.914,-124.1693 142.1034,-234.4318 l 8.4094,-27.1213 22.6011,-3.7771 c 39.8755,-6.664 461.9067,-58.6762 1387.7055,-171.0242 198.8894,-24.1358 461.9659,-56.0755 584.6143,-70.9771 491.6046,-59.7294 674.6738,-81.8517 985.4066,-119.0781 104.4169,-12.5093 220.7374,-26.4687 258.4896,-31.0208 l 68.6406,-8.2765 -1.6254,16.7482 c -0.8941,9.2114 -4.3635,52.6838 -7.7094,96.6052 -21.2483,278.9122 -143.0666,1725.3174 -176.2633,2092.8589 -13.108,145.1267 -28.2541,296.5602 -30.3659,303.6077 -1.4947,4.9876 -20.9729,5.2463 -359.2277,4.7718 -196.7058,-0.276 -548.1741,-1.5157 -781.0405,-2.7549 z"
       id="path1421"
       transform="scale(0.26458333)" />
    <path
       style="fill:#ff8080;stroke:#000000;stroke-width:3.01348;stroke-opacity:0"
       d="m 3583.5211,1735.7156 c 5.9369,-17.7021 11.208,-28.2897 15.1286,-30.3879 3.3094,-1.7712 16.4029,-3.9443 29.0966,-4.8292 22.9566,-1.6003 23.0474,-1.5774 17.0525,4.2994 -9.872,9.6777 -67.2962,58.0854 -68.9044,58.0854 -0.8167,0 2.6153,-12.2255 7.6267,-27.1677 z"
       id="path1460"
       transform="scale(0.26458333)" />
    <path
       style="fill:#ff5555;stroke:#000000;stroke-width:3.01348;stroke-opacity:0"
       d="m 3464.1759,2102.6527 c 11.6797,-37.7351 101.1567,-316.9699 101.6367,-317.1815 2.2421,-0.9883 72.5675,-62.3199 84.2598,-73.4838 22.1183,-21.1188 20.5447,-22.7019 -20.2493,-20.372 -27.0439,1.5446 -34.2855,1.1528 -33.286,-1.8009 8.4989,-25.1121 76.6752,-244.4609 78.3185,-251.9809 l 2.2164,-10.1415 -31.204,2.1836 c -67.0194,4.6898 -147.8785,13.0378 -150.1859,15.5054 -1.3343,1.4267 -16.4204,60.5588 -33.5252,131.4047 l -31.0994,128.8106 -9.1483,1.5199 c -12.7635,2.1205 -234.3393,19.9653 -235.1361,18.9368 -0.3571,-0.461 -15.9873,-41.5202 -34.7339,-91.2425 -18.7465,-49.7224 -35.5168,-94.1388 -37.2667,-98.7031 -3.8522,-10.0457 1.3223,-10.7484 -92.2564,12.528 l -67.8032,16.8651 0.5481,8.1469 c 0.3015,4.4808 10.811,41.784 23.3545,82.8962 12.5436,41.1121 22.8063,76.8987 22.8063,79.5259 0,3.9603 -7.0814,5.3687 -41.4353,8.2411 -279.7433,23.3895 -2154.28797,174.4903 -2758.24827,222.3332 -120.252898,9.5259 -220.71539,16.524 -223.249983,15.5514 -4.102783,-1.5744 -4.828473,-63.5394 -6.614786,-564.8217 -1.103538,-309.6793 -2.006835,-761.37761 -2.007325,-1003.77406 l -8.93e-4,-440.720821 H 3623.7045 7277.5438 V 809.06082 1645.2429 l -6.7803,1.4186 c -3.7292,0.7803 -42.038,5.6093 -85.1307,10.7312 -43.0927,5.1219 -423.4687,51.3317 -845.2799,102.6884 -839.0397,102.1556 -1926.8034,234.0948 -2075.548,251.7516 -51.8035,6.1494 -94.9151,10.4532 -95.8044,9.5642 -0.889,-0.889 -0.214,-10.2609 1.5007,-20.8265 1.7144,-10.5656 3.1274,-33.4871 3.1397,-50.9366 0.03,-30.1275 -0.5129,-32.8445 -10.6071,-53.9076 -20.5474,-42.8751 -44.4235,-75.5311 -127.8943,-174.9241 -26.0581,-31.0286 -40.2441,-50.9309 -49.2336,-69.0724 -12.216,-24.6533 -12.6587,-26.5734 -13.567,-58.8703 -0.7964,-28.3112 -0.066,-34.9888 4.8074,-43.9329 9.3096,-17.0864 37.6673,-37.402 88.1792,-63.1721 l 47.3585,-24.1613 64.3917,2.9838 c 35.4153,1.6411 70.0946,4.3337 77.0651,5.9834 6.9705,1.6498 29.7897,10.4647 50.7093,19.5886 20.9195,9.1239 40.5442,16.5889 43.6101,16.5889 8.3898,0 16.5364,-12.4154 26.851,-40.921 12.3606,-34.1602 12.1973,-36.1951 -3.0994,-38.6411 -6.8174,-1.0902 -27.0333,-8.015 -44.9243,-15.3886 -43.049,-17.7421 -60.5238,-19.5061 -193.5402,-19.5366 -120.1753,-0.027 -119.1416,-0.1727 -166.5066,23.3509 -79.0856,39.2772 -107.7278,84.953 -108.1711,172.5003 -0.3474,68.6239 8.3965,84.8405 92.0581,170.7347 66.8461,68.63 73.3597,78.2942 85.841,127.3645 7.5092,29.5235 12.9522,81.8987 13.0742,125.808 0.078,28.6238 5.8552,24.9556 -51.1607,32.4917 -71.4462,9.4434 -525.0583,64.9324 -530.8104,64.9324 -4.8291,0 -5.5864,-1.318 -3.8959,-6.7803 z"
       id="path1536"
       transform="scale(0.26458333)" />
    <path
       style="fill:#ff5555;stroke:#000000;stroke-width:3.01348;stroke-opacity:0"
       d="m 3465.497,2105.4678 c 0,-1.6068 20.4968,-66.802 45.5487,-144.8783 25.0517,-78.0763 47.5753,-148.9343 50.0524,-157.4622 4.1103,-14.1502 7.5698,-18.1506 39.5823,-45.7732 51.5174,-44.453 63.706,-56.2457 63.706,-61.6367 0,-4.1387 -4.6528,-4.8511 -32.0519,-4.9078 -17.6288,-0.036 -32.4804,-0.4945 -33.0036,-1.0178 -0.5234,-0.5234 5.863,-22.6007 14.192,-49.0608 44.5581,-141.5554 65.2942,-211.0217 63.4602,-212.593 -2.3756,-2.0356 -78.1798,2.7491 -84.9201,5.36 -2.4861,0.963 -8.5884,1.5225 -13.5606,1.2433 -12.9616,-0.7278 -80.4734,8.1149 -83.1952,10.8969 -3.6249,3.7054 -24.1349,88.2275 -22.1776,91.3945 0.97,1.5693 0.1687,2.8534 -1.7792,2.8534 -2.0302,0 -2.886,2.5116 -2.0045,5.8824 0.8461,3.2354 0.5448,6.2865 -0.6693,6.7804 -3.4294,1.3947 -22.1135,79.9503 -19.8766,83.5695 1.0921,1.7668 0.7937,3.2124 -0.6624,3.2124 -1.4564,0 -5.8404,13.5228 -9.7419,30.0508 -3.9019,16.5279 -7.9406,31.4204 -8.9751,33.0944 -1.0348,1.6739 -37.0739,5.9147 -80.087,9.4239 -43.0132,3.5092 -80.1747,6.9861 -82.581,7.7264 -2.4063,0.7404 -21.358,1.6226 -42.1148,1.9606 l -37.7396,0.6145 -20.0929,-52.7359 c -11.0508,-29.0047 -21.512,-54.2864 -23.2469,-56.1815 -1.7349,-1.8952 -2.5386,-4.0618 -1.7855,-4.8147 0.7528,-0.7529 -5.2389,-18.8653 -13.315,-40.2496 -9.8559,-26.0963 -16.3355,-39.2059 -19.7067,-39.8697 -2.7624,-0.5439 -39.0088,7.4242 -80.5481,17.7068 l -75.5253,18.6957 1.9587,10.9212 c 3.4412,19.1874 23.2211,83.2069 26.0321,84.2554 1.4904,0.5559 1.9572,2.2288 1.0372,3.7174 -0.92,1.4886 2.4614,16.5265 7.5147,33.4174 5.0533,16.8909 9.1878,33.0164 9.1878,35.8345 0,5.6537 -11.1086,8.8905 -30.5114,8.8905 -6.4225,0 -11.6748,1.0171 -11.6718,2.2602 0,1.243 -8.1333,1.8006 -18.0808,1.239 -9.9475,-0.5615 -18.0839,0.1167 -18.0809,1.5068 0,1.3902 -8.1333,2.0683 -18.0808,1.5067 -10.6744,-0.6026 -18.0864,0.2079 -18.0864,1.978 0,1.6495 -2.6748,2.2995 -5.944,1.4446 -6.9811,-1.8256 -251.3551,17.5641 -252.4554,20.0309 -0.411,0.9215 -8.8864,1.2159 -18.8342,0.6543 -9.9479,-0.5615 -18.1007,0.1166 -18.1174,1.5068 -0.018,1.3902 -16.6286,2.9076 -36.9151,3.3719 -20.4863,0.4688 -37.334,2.1518 -37.8954,3.7856 -0.5559,1.6178 -2.341,2.1193 -3.9669,1.1145 -3.6139,-2.2336 -108.0156,5.0601 -108.0577,7.549 -0.015,0.9758 -15.8263,2.166 -35.1328,2.6449 -19.3065,0.479 -36.4807,1.7225 -38.165,2.7634 -1.6842,1.0409 -10.9616,1.5702 -20.6165,1.1761 -9.6548,-0.394 -17.5514,0.3966 -17.5479,1.7568 0,1.3604 -8.811,2.0186 -19.5876,1.4628 -10.7767,-0.5558 -19.5915,0.1224 -19.5885,1.5068 0,1.3844 -8.1333,2.0577 -18.0808,1.4962 -9.9475,-0.5616 -18.0994,0.1166 -18.1153,1.5067 -0.015,1.3903 -16.5946,2.9426 -36.8415,3.4497 -20.2468,0.5071 -37.5236,1.8631 -38.3928,3.0135 -0.8692,1.1503 -17.8532,2.5467 -37.7421,3.1031 -19.8889,0.5564 -36.548,2.0544 -37.0202,3.3289 -0.4722,1.2745 -3.8623,1.7519 -7.5337,1.0609 -3.6714,-0.6911 -49.3912,2.2317 -101.5997,6.495 -52.2084,4.2633 -114.5874,9.2046 -138.6199,10.9807 -24.0324,1.7761 -45.7295,4.0119 -48.2156,4.9685 -2.4861,0.9566 -5.8762,1.4104 -7.5337,1.0085 -6.6531,-1.6135 -106.9783,7.0934 -106.9783,9.2843 0,1.2949 -2.0426,1.5706 -4.5392,0.6126 -5.5534,-2.1311 -180.4576,11.392 -181.6165,14.042 -0.4548,1.04 -4.523,1.3806 -9.0405,0.7569 -4.5174,-0.6237 -84.153,5.0074 -176.9681,12.5135 -92.815,7.5061 -232.4896,18.6848 -310.38799,24.8416 -77.89835,6.1568 -141.99377,12.0172 -142.43431,13.0231 -0.44051,1.0059 -5.18673,1.3563 -10.54716,0.7786 -5.3604,-0.5777 -110.77299,7.1491 -234.25016,17.1705 -123.47716,10.0215 -236.03048,19.0122 -250.11848,19.9796 -14.088,0.9673 -27.64864,2.4893 -30.13476,3.3822 -2.48611,0.8929 -12.31758,1.368 -21.84769,1.0558 -9.53012,-0.3121 -17.34119,0.5454 -17.35793,1.9057 -0.0169,1.3603 -16.62853,2.8532 -36.91508,3.3174 -20.28655,0.4643 -37.22049,1.8204 -37.63098,3.0135 -0.41049,1.1932 -9.56392,1.7146 -20.34096,1.1589 -10.77704,-0.5558 -19.59462,0.1223 -19.59462,1.5067 0,1.3845 -9.83146,2.5172 -21.84769,2.5172 -12.01624,0 -49.991568,1.9156 -84.389625,4.2568 -34.398056,2.3413 -63.553435,3.2469 -64.789728,2.0127 -3.432375,-3.4268 -5.424457,-228.6873 -6.10489,-690.3284 -0.339567,-230.3803 -1.528415,-620.58769 -2.641883,-867.12767 L -31.124525,-27.121281 H 3623.2097 7277.5438 V 809.11822 c 0,622.96288 -0.8745,836.23948 -3.4284,836.23948 -8.1123,0 -82.8682,9.6854 -86.9759,11.2686 -2.4861,0.9582 -5.6864,1.4771 -7.1118,1.1532 -3.9079,-0.888 -87.1358,8.8651 -92.3329,10.8202 -2.4861,0.9352 -8.7906,1.4205 -14.0096,1.0785 -5.2194,-0.3421 -10.3983,0.8483 -11.5088,2.6453 -1.1108,1.797 -3.3088,2.4703 -4.8848,1.4963 -2.94,-1.817 -184.4534,18.8167 -192.594,21.8933 -2.4861,0.9395 -8.7906,1.4284 -14.0096,1.0863 -5.2194,-0.342 -10.3983,0.8484 -11.5088,2.6454 -1.1108,1.797 -3.3151,2.4663 -4.899,1.4874 -3.0068,-1.8582 -208.7905,21.849 -216.6876,24.9635 -2.4861,0.9805 -5.8383,1.4671 -7.449,1.0814 -5.9049,-1.414 -117.6422,13.1631 -118.6209,15.4751 -0.556,1.3133 -2.3264,1.5747 -3.9344,0.581 -3.9082,-2.4156 -341.3229,38.5652 -342.6153,41.6124 -0.556,1.3107 -2.3385,1.5626 -3.961,0.5597 -4.0079,-2.4769 -365.4234,41.4312 -366.6966,44.5497 -0.5559,1.3617 -2.3945,1.6207 -4.0853,0.5755 -4.3352,-2.6792 -95.8554,8.432 -95.8554,11.6375 0,1.4492 -1.479,1.7208 -3.2865,0.6036 -4.2128,-2.6037 -193.7601,20.0975 -195.1069,23.3671 -0.5559,1.3496 -2.3441,1.6297 -3.9738,0.6225 -3.524,-2.1779 -120.0747,11.1527 -120.0747,13.7336 0,0.979 -5.4242,1.2627 -12.0539,0.6305 -7.8178,-0.7455 -12.0539,0.083 -12.0539,2.3583 0,1.9293 -1.4684,2.6003 -3.2633,1.491 -4.5334,-2.8018 -72.0736,5.0276 -72.0736,8.355 0,1.4862 -1.4492,1.8067 -3.2205,0.712 -4.4328,-2.7398 -120.332,11.1549 -120.332,14.4261 0,1.4474 -1.4684,1.724 -3.2633,0.6147 -3.8048,-2.3514 -72.0736,4.7558 -72.0736,7.5034 0,1.0179 -5.4242,1.3334 -12.0539,0.7012 -7.8178,-0.7455 -12.0539,0.083 -12.0539,2.3583 0,1.9294 -1.4208,2.6298 -3.1572,1.5565 -4.4304,-2.738 -96.2875,8.0773 -96.2875,11.3369 0,1.4676 -1.3798,1.8155 -3.0665,0.7732 -4.4271,-2.7362 -72.2704,4.9777 -72.2704,8.2172 0,1.4951 -1.4537,1.82 -3.2304,0.7219 -4.2252,-2.6113 -368.624,41.0962 -369.9445,44.3726 -0.556,1.3794 -2.3159,1.7014 -3.9109,0.7156 -3.5225,-2.177 -96.0298,8.0769 -96.0298,10.6444 0,0.9993 -5.4243,1.2995 -12.0539,0.6673 -6.8753,-0.6557 -12.054,0.16 -12.054,1.8983 0,1.6763 -2.4357,2.4109 -5.4131,1.6323 -2.9773,-0.7785 -34.5058,2.0534 -70.0633,6.2931 -35.5575,4.2397 -74.965,8.5764 -87.5719,9.637 l -22.9214,1.9283 1.483,-51.3676 1.4829,-51.3677 -9.3716,-20.0262 c -10.2588,-21.9228 -37.2782,-64.638 -54.3857,-85.9795 -5.9788,-7.4584 -31.3748,-38.6478 -56.4358,-69.31 -72.2384,-88.3839 -79.5145,-102.3333 -79.5145,-152.4417 0,-22.1185 1.3501,-34.2904 4.4735,-40.3303 8.4248,-16.2921 44.3207,-40.9582 100.9888,-69.3957 28.9418,-14.5235 30.9599,-15.072 55.4643,-15.072 13.9861,0 46.2173,1.4348 71.6246,3.1884 l 46.1953,3.1884 44.4527,17.9059 c 24.449,9.8483 46.9268,17.9059 49.9505,17.9059 9.1155,0 18.1303,-12.6204 27.6532,-38.714 11.5512,-31.6509 11.682,-38.9405 0.7428,-41.3368 -4.5579,-0.9984 -18.4576,-5.4314 -30.8882,-9.8512 -12.4305,-4.4197 -23.9571,-8.0359 -25.6145,-8.0359 -1.6574,0 -3.6915,-0.8693 -4.5202,-1.9318 -0.8287,-1.0626 -8.9651,-4.3616 -18.0809,-7.3314 -14.5608,-4.7436 -31.6632,-5.5439 -140.7856,-6.5885 -138.5253,-1.3259 -143.6678,-0.8335 -181.2883,17.3594 -83.1593,40.2149 -111.9244,81.0283 -116.8837,165.8406 -2.3041,39.4046 2.2661,67.7249 14.6913,91.0367 12.0831,22.6705 25.3991,38.226 97.8165,114.2681 38.1699,40.0806 50.3558,57.9592 59.8109,87.7511 12.5761,39.6268 23.4231,152.3944 15.6776,162.9871 -2.7884,3.8131 -13.6884,6.3916 -42.8833,10.144 -21.5295,2.7673 -39.5992,6.1222 -40.1551,7.4553 -0.556,1.3332 -2.3463,1.5985 -3.9787,0.5897 -3.8745,-2.3945 -115.2589,11.1974 -116.4977,14.2158 -0.5213,1.2704 -2.6892,1.6416 -4.817,0.8251 -2.8957,-1.1112 -214.0912,23.2098 -364.1391,41.9339 -4.5579,0.5688 -8.2871,-0.2805 -8.2871,-1.8872 z"
       id="path1612"
       transform="scale(0.26458333)" />
    <path
       style="fill:#5fbcd3;stroke:#000000;stroke-width:3.01348;stroke-opacity:0"
       d="m 3581.1529,1749.9533 c 3.4943,-14.3618 14.1717,-41.1102 17.1434,-42.9468 4.2295,-2.614 44.9958,-6.5545 44.9958,-4.3493 0,1.5607 -21.9769,20.7181 -58.4606,50.9604 -5.4358,4.5059 -5.6215,4.3209 -3.6786,-3.6643 z"
       id="path1651"
       transform="scale(0.26458333)" />
    <path
       style="fill:#ff5555;stroke:#000000;stroke-width:3.01348;stroke-opacity:0"
       d="m 3321.5852,2081.6225 c -6.6282,-17.1029 -14.5497,-39.0221 -17.6034,-48.7093 l -5.5521,-17.6133 7.7588,-6.4226 c 4.2673,-3.5325 19.5258,-16.4368 33.9078,-28.6761 14.382,-12.2394 26.8638,-21.5388 27.7373,-20.6652 1.3932,1.3931 -31.1434,150.0001 -33.3437,152.2932 -0.4694,0.4892 -6.2765,-13.1038 -12.9047,-30.2067 z"
       id="path1690"
       transform="scale(0.26458333)" />
    <path
       style="fill:#5fbcd3;stroke:#000000;stroke-width:0.595645;stroke-opacity:0"
       d="m 3580.4221,1754.9071 c 0,-0.5799 0.5461,-3.0592 1.2135,-5.5097 4.6383,-17.0295 14.2759,-40.6863 17.2164,-42.26 3.0938,-1.6558 29.0902,-4.8054 39.3104,-4.7627 l 5.1003,0.021 -5.6778,5.4884 c -8.9309,8.6332 -55.391,48.0771 -56.6288,48.0771 -0.2937,0 -0.534,-0.4745 -0.534,-1.0544 z"
       id="path2808"
       transform="scale(0.26458333)" />
    <path
       style="fill:#5f8dd3;stroke:#000000;stroke-width:0.264583px;stroke-linecap:butt;stroke-linejoin:miter;stroke-opacity:1"
       d="m 948.42318,450.57194 -4.40171,18.52123 26.7965,-21.54565 -21.60678,2.07883 -0.94559,1.10318"
       id="path2960" />
  </g>
</svg>
