<?xml version="1.0" encoding="UTF-8" standalone="no"?>
<!-- Created with Inkscape (http://www.inkscape.org/) -->

<svg
   width="200mm"
   height="200mm"
   viewBox="0 0 200 200"
   version="1.1"
   id="svg17"
   inkscape:version="1.1.2 (b8e25be833, 2022-02-05)"
   sodipodi:docname="tuhak.svg"
   xmlns:inkscape="http://www.inkscape.org/namespaces/inkscape"
   xmlns:sodipodi="http://sodipodi.sourceforge.net/DTD/sodipodi-0.dtd"
   xmlns="http://www.w3.org/2000/svg"
   xmlns:svg="http://www.w3.org/2000/svg">
  <sodipodi:namedview
     id="namedview19"
     pagecolor="#ffffff"
     bordercolor="#666666"
     borderopacity="1.0"
     inkscape:pageshadow="2"
     inkscape:pageopacity="0.0"
     inkscape:pagecheckerboard="0"
     inkscape:document-units="mm"
     showgrid="false"
     width="200mm"
     inkscape:zoom="1.6769694"
     inkscape:cx="533.8354"
     inkscape:cy="448.78006"
     inkscape:window-width="3840"
     inkscape:window-height="2066"
     inkscape:window-x="-11"
     inkscape:window-y="-11"
     inkscape:window-maximized="1"
     inkscape:current-layer="layer1" />
  <defs
     id="defs14" />
  <g
     inkscape:label="Layer 1"
     inkscape:groupmode="layer"
     id="layer1">
    <path
       style="fill:#000000;stroke:#000000;stroke-width:0.298157;stroke-opacity:0"
       d=""
       id="path3728"
       transform="scale(0.26458333)" />
    <path
       style="fill:#000000;stroke:#000000;stroke-width:0.298157;stroke-opacity:0"
       d=""
       id="path3884"
       transform="scale(0.26458333)" />
    <rect
       style="fill:#1a1a1a;stroke:#000000;stroke-width:0.264583;stroke-opacity:0"
       id="rect5772"
       width="73.960236"
       height="56.434513"
       x="11.284415"
       y="16.668621" />
    <rect
       style="fill:#1a1a1a;stroke:#000000;stroke-width:0.264583;stroke-opacity:0"
       id="rect5776"
       width="77.431236"
       height="56.417385"
       x="108.53397"
       y="28.652954" />
    <ellipse
       style="fill:#ff5555;stroke:#000000;stroke-width:0.264583;stroke-opacity:0"
       id="path5888"
       cx="47.943928"
       cy="43.861916"
       rx="28.75296"
       ry="23.603456" />
    <ellipse
       style="fill:#2aff2a;stroke:#000000;stroke-width:0.264583;stroke-opacity:0"
       id="path5956"
       cx="150.40387"
       cy="56.609409"
       rx="26.223146"
       ry="22.511507" />
    <path
       style="fill:#ffb380;fill-opacity:1;stroke:#000000;stroke-width:0.185797;stroke-opacity:0"
       d="m 36.381657,191.05279 c -3.431244,-0.34959 -9.909912,-1.60115 -11.43076,-2.20821 l -0.632054,-0.25228 2.611917,-2.6707 c 1.436547,-1.46889 3.211756,-3.47018 3.944891,-4.44731 0.733136,-0.97714 2.342389,-2.88607 3.576106,-4.24207 2.717791,-2.98714 3.878249,-4.59682 6.558143,-9.09681 1.131556,-1.90006 3.559169,-5.67651 5.394705,-8.3921 6.924427,-10.24436 10.068906,-16.38779 14.846391,-29.00568 3.406057,-8.99579 4.756301,-13.88725 5.684405,-20.59271 0.382553,-2.76386 0.393128,-3.22648 0.330656,-14.46357 -0.06327,-11.379599 -0.150955,-13.65292 -0.785511,-20.360159 -0.454378,-4.802901 -1.21647,-19.342274 -1.23206,-23.505803 -0.01646,-4.381691 0.193767,-6.677958 0.995046,-10.871391 0.7025,-3.676436 1.415097,-5.994627 1.966408,-6.396981 0.568892,-0.415175 2.2884,1.075996 3.495785,3.031589 1.395547,2.260338 2.212406,5.130943 3.168254,11.133737 0.454778,2.856039 1.641757,13.097324 2.09668,18.090179 0.527069,5.784745 2.564234,19.855867 3.359441,23.204474 0.248945,1.048325 1.263908,2.045555 2.07147,2.035305 1.092481,-0.0138 2.01766,-0.84001 2.460328,-2.19695 1.314038,-4.027985 1.552797,-13.038575 0.783921,-29.583884 -0.594468,-12.792203 -0.688911,-16.835863 -0.461816,-19.771665 0.405159,-5.237754 1.447311,-10.200006 3.061423,-14.577071 0.68006,-1.844154 0.951007,-2.337308 1.810244,-3.294769 1.046966,-1.166659 1.768904,-1.542463 2.979969,-1.55123 1.211655,-0.0087 2.151646,1.444855 2.923635,4.5212 0.297029,1.183631 0.323939,2.968063 0.422641,28.022701 l 0.105418,26.75856 -0.55001,3.622862 c -0.30251,1.992568 -0.662378,4.208099 -0.799722,4.923381 -0.772078,4.021225 -0.786601,4.132585 -0.591533,4.536555 0.242262,0.50167 0.856847,0.6936 2.202053,0.68767 2.046995,-0.009 4.035709,-1.68345 5.142929,-4.330114 1.08915,-2.603532 1.45326,-4.906246 1.72148,-10.887366 0.19298,-4.303239 0.42199,-8.047203 0.6543,-10.69669 0.0902,-1.028571 0.42412,-5.590289 0.74207,-10.137167 0.92704,-13.256761 2.63916,-28.981361 3.98715,-36.61915 0.47488,-2.690715 1.46109,-7.176686 1.9,-8.642567 0.90248,-3.0141294 2.03237,-5.0538984 2.80188,-5.0581634 0.95018,-0.005 2.97232,3.5259524 3.91359,6.8341904 1.01187,3.556443 1.37075,8.528595 1.41472,19.600316 0.0525,13.223889 -0.52051,21.564004 -2.71496,39.516194 -0.78242,6.400772 -0.98789,9.643752 -0.85727,13.529982 0.16091,4.787135 0.5965,6.817465 1.584,7.383235 0.26772,0.15338 0.94464,0.27552 1.50428,0.2714 1.27264,-0.009 2.60511,-0.80976 3.39494,-2.0393 2.00557,-3.122156 3.60949,-8.881048 6.02197,-21.621984 1.67628,-8.852898 2.43761,-12.217903 4.45723,-19.70052 1.03846,-3.847459 2.44155,-9.123437 3.11797,-11.724387 1.70536,-6.557329 3.38091,-12.194508 4.04062,-13.594094 0.77419,-1.642491 1.13073,-1.831783 2.86445,-1.520789 2.77894,0.498491 4.536,1.89466 5.32814,4.233776 1.41284,4.171934 0.64431,12.428907 -2.02086,21.711844 -1.74523,6.078703 -2.35396,7.634622 -12.54906,32.07554 -4.46773,10.710554 -5.12714,12.511134 -5.12067,13.982424 0.003,0.7467 0.0993,0.96026 0.75303,1.67434 1.20128,1.31225 2.10125,1.80991 3.45595,1.91108 2.13443,0.15939 4.70083,-1.06647 8.24633,-3.93891 1.6265,-1.31774 3.0441,-2.80791 7.42224,-7.8022 5.91945,-6.752533 6.1126,-6.9421 11.70451,-11.487831 5.01035,-4.072979 6.03841,-4.599929 9.86532,-5.056655 2.32229,-0.277149 11.43477,-0.332569 12.67716,-0.07707 1.36461,0.280603 3.1433,1.072742 4.34744,1.936113 1.34832,0.966766 1.52833,1.498865 1.52959,4.521413 8.8e-4,1.858283 -0.0714,2.491695 -0.40348,3.543885 -0.95851,3.036377 -2.03013,4.862598 -4.61488,7.864544 -2.87382,3.337671 -4.5658,4.811561 -10.14755,8.839531 -3.85647,2.78296 -5.31021,3.71108 -7.81496,4.98934 -4.31296,2.20103 -9.21025,4.15624 -20.72481,8.27427 -4.60186,1.64578 -16.03968,6.06889 -18.39083,7.11189 -2.07647,0.92114 -4.88919,2.52204 -6.86099,3.90502 -3.98195,2.79287 -7.65017,6.66503 -14.17136,14.9592 -2.26459,2.88029 -5.584032,7.06011 -7.376532,9.28848 -1.79249,2.22837 -4.653463,5.91867 -6.357715,8.20067 -4.7463,6.35533 -6.785711,8.90306 -10.970718,13.70516 -5.037951,5.7808 -6.659981,7.34535 -11.090364,10.69727 -4.009354,3.0334 -5.371441,3.8872 -7.795685,4.88652 -1.917101,0.79027 -4.549779,2.12083 -7.304633,3.69176 -1.163049,0.66323 -2.094667,1.0853 -2.155305,0.97649 -0.162097,-0.29093 -0.478241,-0.22205 -0.961564,0.20952 -0.356087,0.31795 -0.390615,0.42343 -0.18665,0.57024 0.330166,0.23766 -0.732557,0.56787 -2.664159,0.8278 -1.316095,0.17709 -10.255635,0.27233 -11.704737,0.1247 z"
       id="path6462" />
  </g>
</svg>
