<?xml version="1.0" encoding="UTF-8" standalone="no"?>
<!-- Created with Inkscape (http://www.inkscape.org/) -->

<svg
   width="200mm"
   height="200mm"
   viewBox="0 0 200 200"
   version="1.1"
   id="svg17"
   inkscape:version="1.1.2 (b8e25be833, 2022-02-05)"
   sodipodi:docname="wheelofluck.svg"
   xmlns:inkscape="http://www.inkscape.org/namespaces/inkscape"
   xmlns:sodipodi="http://sodipodi.sourceforge.net/DTD/sodipodi-0.dtd"
   xmlns="http://www.w3.org/2000/svg"
   xmlns:svg="http://www.w3.org/2000/svg">
  <sodipodi:namedview
     id="namedview19"
     pagecolor="#ffffff"
     bordercolor="#666666"
     borderopacity="1.0"
     inkscape:pageshadow="2"
     inkscape:pageopacity="0.0"
     inkscape:pagecheckerboard="0"
     inkscape:document-units="mm"
     showgrid="false"
     width="200mm"
     inkscape:zoom="1.8757253"
     inkscape:cx="90.703969"
     inkscape:cy="392.47174"
     inkscape:window-width="3840"
     inkscape:window-height="2066"
     inkscape:window-x="-11"
     inkscape:window-y="-11"
     inkscape:window-maximized="1"
     inkscape:current-layer="layer1" />
  <defs
     id="defs14" />
  <g
     inkscape:label="Layer 1"
     inkscape:groupmode="layer"
     id="layer1">
    <path
       style="fill:#000000;stroke:#000000;stroke-width:0.298157;stroke-opacity:0"
       d=""
       id="path3728"
       transform="scale(0.26458333)" />
    <path
       style="fill:#000000;stroke:#000000;stroke-width:0.298157;stroke-opacity:0"
       d=""
       id="path3884"
       transform="scale(0.26458333)" />
    <ellipse
       style="fill:#000000;fill-opacity:1;stroke:#000000;stroke-width:0.332387;stroke-opacity:0"
       id="path7160"
       cx="77.349586"
       cy="77.712517"
       rx="71.19268"
       ry="74.859924" />
    <path
       style="fill:#000000;fill-opacity:1;stroke:#000000;stroke-width:0.198208;stroke-opacity:0"
       d="m 16.863865,181.06536 c 0.269713,-0.45908 3.862295,-6.71148 7.983514,-13.89423 9.344396,-16.28606 18.573433,-32.24268 18.915562,-32.70422 0.235566,-0.31779 0.502512,-0.12115 2.938431,2.16455 1.473628,1.38275 3.337809,3.03742 4.14262,3.67703 0.804814,0.63964 1.438498,1.2599 1.408188,1.37838 -0.03031,0.11842 -5.866671,9.20407 -12.969692,20.19021 l -12.91458,19.9748 -4.997216,0.0241 -4.997214,0.0241 z"
       id="path7236" />
    <path
       style="fill:#000000;fill-opacity:1;stroke:#000000;stroke-width:0.198208;stroke-opacity:0"
       d="m 117.57775,180.09194 -1.81532,-0.0554 -7.18643,-16.92985 c -6.91232,-16.28405 -7.17163,-16.94038 -6.79774,-17.20588 0.2138,-0.15182 1.33352,-0.88061 2.48829,-1.61954 1.15476,-0.73892 2.61257,-1.71212 3.23955,-2.16264 1.03085,-0.74072 1.15831,-0.78602 1.33154,-0.47311 0.17744,0.32053 17.78919,37.75834 18.0184,38.30226 0.10133,0.2405 -4.01857,0.30449 -9.27829,0.14412 z"
       id="path7275" />
    <ellipse
       id="path7587"
       style="fill:#000000;stroke:#000000;stroke-width:0.332387"
       cx="141.44078"
       cy="17.67214"
       rx="0.0066801272"
       ry="0.0065214331" />
    <ellipse
       id="path7589"
       style="fill:#000000;stroke:#000000;stroke-width:0.332387"
       cx="141.44078"
       cy="17.67214"
       rx="0.0066801272"
       ry="0.0065214331" />
    <path
       style="fill:#00ff00;stroke:#000000;stroke-width:0.332387px;stroke-linecap:butt;stroke-linejoin:miter;stroke-opacity:1"
       d="M 146.06749,20.195781 118.90248,43.435931 152.95133,32.69644 Z"
       id="path7626" />
    <path
       style="fill:#808080;fill-opacity:1;stroke:#000000;stroke-width:0.157775;stroke-opacity:0"
       d="m 133.73448,205.56463 c 1.5e-4,-0.0651 0.85028,-14.637 1.88905,-32.38203 1.03879,-17.74504 1.84819,-32.30381 1.79867,-32.35284 -0.0495,-0.049 -0.17241,0.0223 -0.27312,0.15843 -0.89928,1.21594 -18.07357,21.37856 -18.21058,21.37923 -0.0991,5.3e-4 -2.34815,-0.95239 -4.99788,-2.1175 -2.64974,-1.16512 -5.0527,-2.2162 -5.33993,-2.33575 l -0.52223,-0.21734 10.79132,-11.61495 c 5.93523,-6.38823 12.83781,-13.81553 15.33908,-16.50511 l 4.54777,-4.89016 3.95529,0.0782 c 2.17542,0.043 4.61714,0.11618 5.42607,0.16261 1.29049,0.0741 1.45671,0.11644 1.35611,0.34556 -0.0631,0.14363 -0.14314,0.8103 -0.17796,1.4815 -0.0567,1.09239 -0.0209,1.29192 0.3411,1.90271 1.14404,1.93024 4.32415,2.64099 9.44742,2.11149 5.00244,-0.51702 8.71467,-1.82606 10.9008,-3.84395 l 0.86285,-0.79645 7.2296,-0.13389 7.2296,-0.1339 5.76262,13.24204 5.76261,13.24204 -2.67628,1.52908 c -2.17622,1.24337 -2.71218,1.49052 -2.86841,1.32276 -0.10568,-0.11346 -2.18187,-3.78195 -4.61376,-8.15219 -2.4319,-4.37025 -4.51884,-8.04938 -4.63765,-8.17586 -0.18303,-0.19484 -0.21483,0.13066 -0.20817,2.13101 0.006,1.88027 -0.44059,64.26244 -0.46138,64.40894 -0.0146,0.10322 -47.65293,0.2595 -47.65261,0.15633 z"
       id="path7943" />
    <path
       style="fill:none;stroke:#ffb380;stroke-width:0.264583px;stroke-linecap:butt;stroke-linejoin:miter;stroke-opacity:1"
       d="m 162.99144,129.51896 c -0.13725,-1.78662 0.53941,-3.46662 0.76316,-5.21039 0.0335,-0.26082 -0.0497,-0.52992 -0.004,-0.78887 0.11001,-0.62246 0.68602,-2.28226 0.93262,-2.84458 0.0597,-0.13623 0.23809,-0.18917 0.31399,-0.3171 0.22527,-0.37969 0.62533,-1.17144 0.6233,-1.58084"
       id="path8342" />
    <path
       style="fill:none;stroke:#ffb380;stroke-width:0.264583px;stroke-linecap:butt;stroke-linejoin:miter;stroke-opacity:1"
       d="m 158.05064,119.44565 c -0.58855,2.77141 -0.8385,5.597 -1.37868,8.36896 -0.10072,0.51688 -0.25504,1.68461 -0.62097,2.05416 -0.10269,0.10372 -0.76752,0.14091 -0.94508,0.32022 -0.037,0.0374 0.0378,0.1204 8e-4,0.15778 -0.074,0.0747 -0.24154,-0.0732 -0.31555,0.002 -0.037,0.0374 0.0378,0.1204 7.9e-4,0.15777 -0.074,0.0747 -0.2217,-0.0459 -0.31554,0.002 -0.22461,0.11369 -0.18965,0.31649 -0.47176,0.31788"
       id="path8377" />
    <path
       style="fill:none;stroke:#ffb380;stroke-width:0.264583px;stroke-linecap:butt;stroke-linejoin:miter;stroke-opacity:1"
       d="m 162.99144,129.51896 c 7.9e-4,0.17781 -0.0141,0.0859 0.0207,0.19712 0.0286,0.0914 0.037,0.19032 0.0802,0.27572 0.0123,0.0242 0.17778,0.0583 0.17807,0.11745"
       id="path8412" />
    <path
       style="fill:none;stroke:#ffb380;stroke-width:0.264583px;stroke-linecap:butt;stroke-linejoin:miter;stroke-opacity:1"
       d="m 153.40302,116.82583 c 0.11018,0.35092 0.39597,0.63858 0.67482,0.86444 0.18281,0.14808 0.36103,0.3169 0.55444,0.45087 0.12987,0.09 0.0288,-0.0141 0.17789,0.078 0.0237,0.0147 0.035,0.0455 0.0594,0.0589 0.0365,0.02 0.0806,0.0219 0.11853,0.0389 0.07,0.0314 0.12689,0.0882 0.1978,0.11736 0.0443,0.0182 0.0935,0.0218 0.13824,0.0388 0.0412,0.0156 0.0771,0.0437 0.11862,0.0586 0.0316,0.0113 0.0678,0.006 0.0987,0.0192 0.0171,0.007 0.0234,0.0301 0.0396,0.0392 0.0616,0.0348 0.13627,0.0425 0.1976,0.0779 0.12609,0.0727 0.23585,0.16498 0.37578,0.21509 0.0316,0.0113 0.0669,0.009 0.0987,0.0192 0.14972,0.0491 0.32841,0.15917 0.47429,0.19488 0.0255,0.006 0.0529,-0.005 0.0789,-2.6e-4 0.0494,0.008 0.0908,0.0429 0.13834,0.0585 0.0658,0.0216 0.14892,0.0471 0.21723,0.0581 0.0389,0.006 0.08,-0.01 0.11833,-5.3e-4 0.0283,0.007 0.0654,0.0308 0.0988,0.0389 0.0888,0.0217 -0.0191,-0.0488 0.11843,0.0191 0.0167,0.008 0.023,0.031 0.0396,0.0392 0.0626,0.0309 0.15137,0.0223 0.21713,0.0384 0.0418,0.0102 0.0768,0.0483 0.11862,0.0586 0.0794,0.0194 0.18164,0.0198 0.25658,0.0382 0.0462,0.0113 0.0894,0.0309 0.13824,0.0388 0.35085,0.0567 0.7805,0.0255 1.12404,-0.0253 0.10942,-0.0162 0.22512,-0.007 0.33517,-0.0214 0.11542,-0.015 0.23948,0.008 0.35499,-0.002 0.0911,-0.007 0.18414,-0.0312 0.2759,-0.0408 0.0915,-0.01 0.18434,0.006 0.2761,-10e-4 0.1905,-0.0146 0.38035,-0.0451 0.57164,-0.062 0.0714,-0.006 0.14557,0.006 0.21694,-0.001 0.0698,0.008 0.13043,-0.0327 0.19702,-0.0404 0.0588,-0.007 0.11934,0.01 0.17749,-7.9e-4 0.10398,-0.0195 0.19476,-0.0597 0.29544,-0.0803 0.0708,-0.0145 0.1449,0.005 0.21693,-0.001 0.2425,-0.0214 0.46856,-0.0824 0.7095,-0.10212 0.0655,-0.005 0.13191,0.007 0.19721,-0.001 0.1738,-0.0202 0.33807,-0.0785 0.51228,-0.10114 0.14006,-0.0182 0.29666,0.002 0.43378,-0.0219 0.0722,-0.0124 0.14319,-0.0296 0.21674,-0.0405 0.0585,-0.009 0.11872,0.006 0.17749,-8e-4 0.13019,-0.0151 0.2617,-0.0636 0.39404,-0.0808 0.0652,-0.008 0.13184,0.006 0.19722,-0.001 0.0837,-0.009 0.19744,-0.034 0.27581,-0.0605 0.009,-0.003 0.0106,-0.0175 0.0196,-0.0198 0.0191,-0.005 0.0405,0.006 0.0592,-2.7e-4 0.0224,-0.008 0.0368,-0.0313 0.059,-0.0397 0.0898,-0.0342 0.0848,-0.003 0.15758,-0.0402 0.10265,-0.052 0.22149,-0.13294 0.31457,-0.19878 0.0228,-0.0161 0.0357,-0.0439 0.0589,-0.0594 0.1884,-0.12695 0.0568,0.0195 0.2556,-0.15904 0.0177,-0.0159 0.0225,-0.0425 0.0392,-0.0594 0.15943,-0.16101 0.35073,-0.29475 0.51053,-0.45613 0.0527,-0.0533 0.0864,-0.123 0.13717,-0.17818 0.15146,-0.16473 0.30849,-0.32234 0.45116,-0.49527 0.24885,-0.30163 0.4601,-0.62757 0.70541,-0.93043 0.0392,-0.0462 0.0784,-0.0924 0.11764,-0.13863 0.0328,-0.0199 0.0713,-0.0324 0.0983,-0.0597 0.027,-0.0272 0.0355,-0.0684 0.0587,-0.0989 0.0423,-0.0556 0.0978,-0.1008 0.13727,-0.15845 0.02,-0.0292 0.019,-0.0696 0.039,-0.0988 0.0362,-0.0528 0.19356,-0.25494 0.25482,-0.31681 0.0957,-0.0966 0.20877,-0.16936 0.29446,-0.27756 0.0183,-0.023 0.0229,-0.0545 0.0391,-0.0791 0.0374,-0.0568 0.17675,-0.15074 0.17642,-0.21782"
       id="path8447" />
    <path
       style="fill:#ff9955;fill-opacity:1;stroke:#ffb380;stroke-width:0.0745392;stroke-opacity:0"
       d="m 587.28601,495.16581 c -1.53436,-0.02 -4.38884,-0.16027 -4.49894,-0.22109 -0.0709,-0.0391 -0.0316,-0.0842 0.13398,-0.15375 0.12883,-0.0541 0.40192,-0.29311 0.60687,-0.53111 0.20495,-0.238 0.41413,-0.44888 0.46485,-0.46863 0.0507,-0.0197 0.24855,-9.3e-4 0.43964,0.0418 0.50736,0.11346 0.91319,-0.0245 1.07348,-0.36495 0.11046,-0.2346 0.14361,-0.25429 0.36132,-0.21456 0.47642,0.087 0.92345,-0.28359 0.92108,-0.76347 -10e-4,-0.24834 0.2243,-0.33891 1.69319,-0.67995 1.31204,-0.30462 1.66224,-0.47022 1.99818,-0.94484 0.8448,-1.19358 1.28398,-2.72401 2.18167,-7.60259 0.95252,-5.17656 1.25614,-7.06412 2.46593,-15.33017 0.76705,-5.24093 1.25489,-8.35859 1.73342,-11.07777 0.35836,-2.03631 0.88026,-4.69591 0.93167,-4.74784 0.0184,-0.0186 0.2474,-1e-4 0.50895,0.041 0.6989,0.10986 2.56829,0.0821 3.69758,-0.055 0.54224,-0.0658 1.48111,-0.13257 2.08639,-0.14836 1.27042,-0.0331 3.79482,-0.19478 3.98106,-0.2549 0.0696,-0.0225 0.65703,-0.0759 1.3054,-0.1187 1.61649,-0.10673 2.37713,-0.19815 2.82883,-0.33996 0.21092,-0.0662 0.71371,-0.13692 1.11733,-0.15711 0.40361,-0.0202 1.01868,-0.0912 1.36683,-0.1578 0.34814,-0.0666 1.08566,-0.15356 1.63892,-0.19325 0.55327,-0.0397 1.30747,-0.14561 1.676,-0.23537 0.37047,-0.0902 1.13647,-0.19442 1.71327,-0.23303 1.60438,-0.10739 2.56129,-0.21338 3.09172,-0.34244 0.26617,-0.0648 0.67385,-0.11918 0.90597,-0.12093 0.23212,-0.002 0.68235,-0.0543 1.00052,-0.11683 0.31817,-0.0625 0.59506,-0.0972 0.61531,-0.0772 0.10859,0.10753 -0.6083,1.95204 -1.30565,3.35935 -0.63016,1.27168 -0.83994,1.62601 -1.10655,1.86896 -0.75729,0.6901 -0.94161,0.91959 -1.14674,1.42776 -1.01632,2.51771 -2.6596,7.43893 -3.13856,9.39921 l -0.30937,1.2662 0.0508,1.29189 c 0.0449,1.1423 0.0303,1.4275 -0.1259,2.46296 -0.22616,1.49904 -0.44224,2.60461 -1.0237,5.23767 -1.51377,6.85491 -1.69726,8.08222 -1.73748,11.62156 -0.0231,2.03424 -0.009,2.47324 0.0908,2.83208 0.065,0.23356 0.15536,0.56551 0.20084,0.73766 0.0455,0.17215 0.16458,0.40936 0.26468,0.52713 l 0.18199,0.21414 -1.17995,0.27818 c -5.76902,1.36011 -12.46738,2.31038 -19.67172,2.79074 -1.67131,0.11143 -6.73815,0.31421 -7.0029,0.28025 -0.0615,-0.008 -0.54797,-0.02 -1.08097,-0.027 z"
       id="path8519"
       transform="scale(0.26458333)" />
    <path
       style="fill:none;stroke:#ffb380;stroke-width:0.264583px;stroke-linecap:butt;stroke-linejoin:miter;stroke-opacity:1"
       d="m 153.40302,116.82583 c -0.0156,-0.0904 -0.0239,-0.1824 -0.0467,-0.27128 -0.017,-0.0664 -0.076,-0.11711 -0.0929,-0.18356 -0.0496,-0.19444 -0.0909,-0.40133 -0.14097,-0.59736 -0.0486,-0.19034 -0.0205,-0.40553 -0.049,-0.59782 -0.0389,-0.2631 -0.19867,-0.51016 -0.23388,-0.78092 -0.0317,-0.24404 -0.0212,-0.491 -0.0496,-0.73583 -0.0287,-0.24729 -0.10586,-0.49339 -0.14165,-0.73537 -0.0222,-0.15028 0.0153,-0.30904 -0.002,-0.46003 -0.036,-0.31033 -0.049,-0.60787 -0.0505,-0.91984 -0.005,-1.07615 0.0557,-2.15673 0.21413,-3.22138 0.0323,-0.21688 0.1,-0.42889 0.13483,-0.64473 0.0221,-0.13708 0.0134,-0.2788 0.044,-0.41425 0.0151,-0.0669 0.0717,-0.11869 0.0911,-0.18447 0.062,-0.21061 0.0865,-0.43055 0.13483,-0.64473 0.14393,-0.63807 0.19266,-1.29954 0.35849,-1.93396 0.0602,-0.23032 0.11004,-0.4636 0.18061,-0.69096 0.0316,-0.10179 0.23935,-0.56789 0.27238,-0.73742 0.0266,-0.13629 0.0128,-0.27893 0.044,-0.41425 0.10371,-0.45075 0.32014,-0.89537 0.45345,-1.33637 0.027,-0.0893 0.0211,-0.186 0.0446,-0.27625 0.11371,-0.43502 0.52279,-1.343802 0.77366,-1.705987 0.17197,-0.248272 0.39211,-0.468001 0.59464,-0.693002 0.36935,-0.41034 0.69465,-0.827958 1.09818,-1.201539 0.31403,-0.290727 0.5743,-0.527524 0.9162,-0.786599 0.26814,-0.203178 -0.0116,-0.103637 0.36667,-0.277836 1.04197,-0.479843 2.26759,-0.546841 3.40198,-0.476837 0.46009,0.02839 0.9211,0.110487 1.38078,0.131199 0.49682,0.02238 0.9815,0.02984 1.47279,0.130744 0.0821,0.01685 0.86947,0.232624 0.96744,0.27125 0.0832,0.0328 0.14833,0.102058 0.23069,0.136875 0.62512,0.26426 0.20088,0.0068 0.78342,0.272161 0.22502,0.102507 0.42416,0.25536 0.64587,0.364847 0.13541,0.06688 0.2841,0.106516 0.41494,0.18197 0.37349,0.215413 0.82445,0.891802 1.0642,1.236868 0.18961,0.272889 0.4744,0.555739 0.60236,0.871115 0.0294,0.07245 0.0193,0.156712 0.0471,0.229788 0.0197,0.05167 0.0707,0.08685 0.0927,0.137556 0.20383,0.469197 0.34668,1.010037 0.42152,1.516067 0.10591,0.22425 0.0228,0.46083 0.0494,0.68983 0.0895,0.77097 0.005,-0.51063 0.0941,0.41357 0.0292,0.30411 -0.0204,0.61553 0.005,0.92007 0.009,0.10807 0.0317,0.21453 0.0476,0.3218 0.0159,0.1226 0.0377,0.24458 0.0478,0.3678 0.0249,0.30376 0.003,0.61506 0.005,0.92007 0.004,0.76672 0.008,1.53344 0.0113,2.30016 0.003,0.57739 0.0469,1.1723 0.009,1.74813 -0.0283,0.42495 -0.14245,0.87249 -0.22366,1.28923 -0.0832,0.42717 -0.10865,0.86197 -0.17766,1.28901 -0.0177,0.10943 -0.0692,0.21363 -0.0904,0.32248 -0.0745,0.38243 0.0254,0.88601 -0.0396,1.28832 -0.0422,0.26095 -0.0995,0.53127 -0.13415,0.78274 -0.0126,0.0911 0.03,0.18859 0.001,0.27602 -0.0433,0.13201 -0.0576,0.26115 -0.0398,0.40314"
       id="path8591" />
    <path
       style="fill:#ff9955;fill-opacity:1;stroke:#ffb380;stroke-width:0.173873;stroke-opacity:0"
       d="m 597.83581,450.94604 c -0.33517,-0.0933 -0.92279,-0.25314 -1.30582,-0.35529 -0.38303,-0.10215 -0.81709,-0.24607 -0.96458,-0.31983 -0.14749,-0.0738 -0.61752,-0.18747 -1.0445,-0.25269 -1.40708,-0.21492 -2.59492,-0.6293 -4.9573,-1.72936 -0.86266,-0.40171 -2.27429,-1.0579 -3.13695,-1.4582 -2.50612,-1.16293 -5.35787,-3.67615 -5.88277,-5.18443 -0.14941,-0.42933 -0.36893,-1.05397 -0.48782,-1.38809 -0.42195,-1.18581 -0.88559,-3.39886 -0.89428,-4.26855 -0.005,-0.48529 -0.21004,-1.46232 -0.45596,-2.17119 -0.29425,-0.84815 -0.5068,-1.97225 -0.62164,-3.28755 -0.096,-1.09928 -0.26851,-2.35033 -0.3834,-2.78011 -0.14003,-0.52384 -0.2205,-2.73 -0.24412,-6.69299 -0.0371,-6.22024 0.12416,-8.54863 0.87923,-12.69724 0.34765,-1.9101 0.4018,-2.15544 1.01674,-4.60621 0.17929,-0.71455 0.55951,-2.71164 0.84495,-4.43799 0.53182,-3.21654 1.1081,-5.59995 2.02194,-8.36251 0.28518,-0.86209 0.60125,-2.05976 0.70238,-2.66149 0.10113,-0.60172 0.45563,-1.81626 0.78777,-2.69895 0.33214,-0.8827 0.78598,-2.3194 1.00854,-3.19267 0.40568,-1.59185 1.21625,-3.56279 2.30173,-5.59683 0.36296,-0.68012 1.73391,-2.38286 3.65437,-4.53879 2.96359,-3.32696 3.86752,-4.21923 6.12597,-6.04696 0.57629,-0.46639 1.08663,-0.90789 1.13409,-0.98112 0.29702,-0.45834 3.28099,-1.47021 5.55471,-1.88361 2.23738,-0.4068 6.76352,-0.43927 10.51908,-0.0755 1.62652,0.15756 3.93571,0.36041 5.13155,0.45077 2.42339,0.18312 5.70384,0.95708 6.86511,1.6197 0.38965,0.22233 1.25695,0.56369 1.92733,0.75857 0.67039,0.19488 1.68035,0.63087 2.24436,0.96887 0.56402,0.338 1.59741,0.88249 2.29642,1.20999 1.4499,0.67929 1.90518,1.13831 4.10076,4.13444 2.218,3.02674 2.79783,3.92352 2.79984,4.33031 10e-4,0.20263 0.11696,0.53109 0.2577,0.72992 0.14073,0.19884 0.45706,0.95115 0.70294,1.6718 0.91506,2.68198 1.16719,4.38604 1.51392,10.23215 0.0945,1.5934 0.21581,2.96749 0.26957,3.05351 0.0538,0.086 0.13229,4.68897 0.17452,10.22877 l 0.0768,10.07237 -0.51722,2.69762 c -0.28448,1.48369 -0.63723,3.62077 -0.7839,4.74907 -0.14667,1.1283 -0.34079,2.24932 -0.43138,2.49117 -0.0906,0.24185 -0.1602,1.35023 -0.15471,2.46306 0.006,1.21327 -0.12274,2.82789 -0.32152,4.03287 -0.18233,1.10524 -0.37644,2.53146 -0.43135,3.16936 -0.0997,1.15846 -0.10148,1.16164 -1.47106,2.67594 -0.75416,0.83386 -1.37086,1.58734 -1.37043,1.67441 4.3e-4,0.0871 -0.40941,0.60955 -0.91075,1.16108 -0.50135,0.55152 -1.41084,1.67031 -2.02111,2.48618 -1.49035,1.99249 -3.49715,4.28216 -4.57305,5.21764 -0.48428,0.42108 -0.91939,0.82663 -0.96691,0.90123 -0.2,0.31398 -2.05544,1.48541 -2.82005,1.78044 -0.45531,0.17569 -1.94064,0.44068 -3.30073,0.58886 -1.36009,0.14819 -3.29386,0.38888 -4.29727,0.53486 -1.00341,0.14598 -2.60638,0.35403 -3.56216,0.46232 -0.95578,0.10829 -2.16777,0.26941 -2.6933,0.35804 -2.92092,0.49261 -12.90841,1.04045 -13.90626,0.7628 z"
       id="path8663"
       transform="scale(0.26458333)" />
    <ellipse
       style="fill:#ffffff;fill-opacity:1;stroke:#ffb380;stroke-width:0.264583;stroke-opacity:0"
       id="path8748"
       cx="159.52516"
       cy="103.43582"
       rx="1.3171141"
       ry="1.2126184" />
    <ellipse
       style="fill:#ffffff;fill-opacity:1;stroke:#ffb380;stroke-width:0.264583;stroke-opacity:0"
       id="path8750"
       cx="166.31259"
       cy="103.79336"
       rx="1.4789207"
       ry="1.3728355" />
    <path
       style="fill:#d40000;stroke:#ff2a2a;stroke-width:0.264583px;stroke-linecap:butt;stroke-linejoin:miter;stroke-opacity:1"
       d="m 157.7447,110.87433 c 0.12707,0.51901 0.68283,0.83208 1.10953,1.09864 0.9136,0.57072 2.01816,0.80999 3.08677,0.90485 0.21384,0.019 0.42952,-0.0115 0.64405,-0.003 0.68125,0.0262 0.15482,0.0878 0.92029,0.0415 0.39749,-0.0241 0.76358,-0.19863 1.14872,-0.2817 0.4323,-0.0932 0.31031,0.0125 0.73538,-0.14164 0.40841,-0.14814 0.95221,-0.50894 1.28423,-0.78842 0.15538,-0.13078 0.30189,-0.24915 0.41199,-0.41607 0.0271,-0.041 0.13678,-0.24877 0.13733,-0.13869 0.003,0.58555 0.10977,1.306 -0.17493,1.84104 -0.062,0.11645 -0.15985,0.21047 -0.22843,0.32316 -0.11162,0.18341 -0.18479,0.38378 -0.3193,0.55363 -0.17721,0.22377 -0.44298,0.40115 -0.6411,0.60122 -0.20751,0.20958 -0.0513,0.17507 -0.32043,0.32362 -0.29378,0.16213 -0.60733,0.30031 -0.91802,0.41857 -0.35775,0.13617 -0.002,0.0817 -0.50491,0.23251 -0.1498,0.0449 -0.30805,0.0556 -0.45958,0.0943 -0.11456,0.0292 -0.19945,0.11682 -0.32134,0.1396 -0.43078,0.0805 -0.8569,0.076 -1.28741,0.14437 -0.59849,0.0951 -2.22386,0.26602 -2.71375,0.1054 -0.50898,-0.16687 -1.14279,-0.58222 -1.52288,-0.95857 -0.0635,-0.0629 -0.0914,-0.15375 -0.13914,-0.22934 -0.4486,-0.70994 -0.6088,-1.80782 -0.38098,-2.62038 0.0341,-0.12175 0.0729,-0.24321 0.0902,-0.36848 0.008,-0.0608 -0.0441,-0.14043 -8e-4,-0.18401 0.0108,-0.0109 0.0412,0.0143 0.046,-2.3e-4 0.12715,-0.38781 -0.15001,0.1179 0.0447,-0.27625 0.0396,-0.0802 0.0814,-0.1606 0.13687,-0.23069 0.0916,-0.11569 0.13797,-0.008 0.1371,-0.1847 z"
       id="path8818" />
    <ellipse
       style="fill:#000000;fill-opacity:1;stroke:#ff2a2a;stroke-width:0.264583;stroke-opacity:0"
       id="path8930"
       cx="159.22488"
       cy="103.18428"
       rx="0.32315913"
       ry="0.22842747" />
    <ellipse
       style="fill:#a05a2c;fill-opacity:1;stroke:#ff2a2a;stroke-width:0.264583;stroke-opacity:0"
       id="path8932"
       cx="165.87373"
       cy="103.42748"
       rx="0.5306285"
       ry="0.31941244" />
    <path
       style="fill:none;stroke:#803300;stroke-width:0.264583px;stroke-linecap:butt;stroke-linejoin:miter;stroke-opacity:1"
       d="m 156.25501,98.000425 c -1.19713,-0.259864 -0.56497,1.277522 -1.14236,1.569791 -0.14736,0.07459 0.11799,-0.308584 0.18174,-0.460941 0.8495,-2.030212 0.09,-0.08801 0.81762,-2.120244 0.005,-0.01445 0.005,0.03143 2.2e-4,0.046 -0.0559,0.170556 -0.12384,0.336976 -0.18151,0.506944 -0.0935,0.275527 -0.17543,0.55494 -0.27193,0.829424 -0.17383,0.494411 -0.42018,0.965782 -0.54478,1.474835 -0.004,0.0149 0.036,0.01135 0.046,-2.27e-4 0.10041,-0.115904 0.18978,-0.24138 0.27421,-0.36939 0.51731,-0.784334 0.60118,-1.03668 1.14055,-1.937819 0.54128,-0.904343 0.276,-0.235942 0.41017,-0.784101 0.004,-0.0149 0.006,0.03182 2.2e-4,0.046 -0.0704,0.171384 -0.13119,0.34889 -0.22752,0.507172 -0.21055,0.345959 -1.46962,2.169467 -1.78346,2.171015 -0.0153,7.6e-5 0.0356,0.01106 0.046,-2.28e-4 0.19137,-0.208148 0.37497,-0.423807 0.54886,-0.646771 0.74064,-0.949648 1.43122,-1.96886 1.96316,-3.045989 0.007,-0.01376 0.008,0.03251 2.3e-4,0.046 -0.0849,0.157416 -0.19697,0.299889 -0.27376,0.461399 -1.1435,2.405271 0.72106,-1.171125 -0.8192,1.798219 -0.14539,0.280295 -0.31026,0.550188 -0.45595,0.830332 -0.007,0.0136 -0.0105,0.0569 2.3e-4,0.046 0.2706,-0.273286 0.30732,-0.705165 0.45481,-1.06035 0.33787,-0.813631 0.61669,-1.624801 1.04627,-2.397397 0.007,-0.01341 1.5e-4,0.03067 2.3e-4,0.046 0.001,0.230015 0.0252,0.461063 0.003,0.690049 -0.17693,1.862095 -0.033,0.614206 -0.31475,1.4737 -0.007,0.02061 0.0349,-0.02745 0.0458,-0.04623 0.096,-0.166446 0.18104,-0.338978 0.27353,-0.507402 0.3659,-0.666347 0.66628,-1.349181 1.00208,-2.029142 0.007,-0.01376 0.003,0.0309 2.3e-4,0.046 -0.0272,0.153995 -0.0573,0.307512 -0.0897,0.460486 -0.25639,1.208077 0.0121,-0.02545 -0.3619,1.24391 -0.0264,0.08947 -0.13619,0.258405 -0.0446,0.276246 0.11756,0.02291 0.18477,-0.152493 0.27489,-0.231378 0.57258,-0.501209 1.24689,-1.105152 1.83219,-1.619203 0.10622,-0.09329 0.20602,-0.194868 0.32066,-0.277609 0.0124,-0.009 0.006,0.03166 2.3e-4,0.046 -0.0707,0.186414 -0.13903,0.374433 -0.2273,0.553174 -0.0473,0.09569 -0.46387,0.783625 -0.54773,0.87679 -0.0459,0.05097 -0.19986,0.159528 -0.18355,0.09292 0.0656,-0.267837 1.60352,-1.618615 1.83173,-1.711208 0.0883,-0.03583 -0.7723,0.995391 -0.82284,1.062164 -0.0873,0.115351 -0.36796,0.331788 -0.2282,0.369163 0.24722,0.06611 1.30499,-0.52614 1.46916,-0.605311 0.39552,-0.190746 0.80158,-0.359627 1.19336,-0.557943 0.0684,-0.03463 0.11493,-0.104291 0.18333,-0.13892 0.0137,-0.0069 0.008,0.03251 2.3e-4,0.046 -0.0849,0.157416 -0.16801,0.317171 -0.27375,0.461396 -0.0132,0.01804 -0.89258,0.971648 -0.95994,1.246862 -0.004,0.0149 0.0328,0.0076 0.046,-2.28e-4 0.1722,-0.101594 0.33679,-0.215574 0.50444,-0.324522 1.96041,-1.273979 -0.71081,0.431277 2.06402,-1.252309 0.11278,-0.06843 0.20938,-0.161142 0.32089,-0.231606 0.013,-0.0082 0.0545,-0.01302 0.046,-2.28e-4 -0.55147,0.83611 -1.19495,1.598864 -1.7361,2.446809 -0.15217,0.23844 -0.22831,0.346159 -0.0449,0.230243 0.81312,-0.513797 1.62963,-0.982179 2.47715,-1.438368 0.39873,-0.214622 0.78889,-0.445444 1.19291,-0.649949 0.0564,-0.02856 0.12237,-0.06194 0.18378,-0.04691 0.0436,0.01066 -0.33678,1.898176 -0.35803,2.025967 -0.0381,0.22891 -0.0654,0.459606 -0.0886,0.690505 -0.006,0.06103 -0.0485,0.220334 7.9e-4,0.184012 0.20116,-0.14782 0.35452,-0.354097 0.50331,-0.554537 0.12698,-0.171059 0.22236,-0.363927 0.3193,-0.55363 0.48553,-0.950156 0.20842,-0.560221 0.68324,-1.383509 0.008,-0.01328 0.003,0.03087 2.3e-4,0.046 -0.0274,0.169251 -0.0432,0.341413 -0.0895,0.506492 -0.10473,0.373536 -0.25495,0.733187 -0.36258,1.105897 -0.0434,0.150246 -0.0493,0.309414 -0.0897,0.460489 -0.006,0.02096 -0.058,0.06412 -0.0458,0.04623 0.1491,-0.217655 0.32456,-0.418061 0.45685,-0.646319 0.24763,-0.427239 0.42828,-0.889961 0.63747,-1.337276 0.035,-0.07481 0.0769,-0.311859 0.0909,-0.230473 0.0287,0.166933 -0.0239,0.338021 -0.0435,0.506264 -0.0393,0.338209 -0.096,0.674288 -0.13301,1.012756 -0.0804,0.735666 -0.15675,1.471885 -0.21912,2.2093 -0.0246,0.290722 -0.0431,0.582537 -0.0417,0.874297 2.7e-4,0.0632 0.002,0.22871 0.0469,0.18378 0.1352,-0.13653 0.19417,-0.33241 0.27353,-0.5074 0.32958,-0.726762 0.59889,-1.478756 0.90916,-2.212705 0.006,-0.01413 1.6e-4,0.03067 2.3e-4,0.046 0.002,0.352694 0.003,0.705387 0.005,1.058079 0.004,0.812726 -0.0166,1.625946 0.012,2.438176 0.004,0.12356 -0.0579,0.43193 0.0478,0.3678 0.184,-0.11164 0.27687,-1.22582 0.31476,-1.4737 0.14456,-0.945842 0.26187,-1.961593 0.49173,-2.900705 0.004,-0.0149 -7.9e-4,0.0307 2.3e-4,0.046 0.0158,0.260662 0.0359,0.521065 0.0499,0.781831 0.0146,0.271034 0.0388,4.026514 0.42221,1.654077 0.11207,-0.693531 0.12926,-1.794603 -0.19605,-2.43727 -0.0286,-0.05641 -0.0417,0.121105 -0.0451,0.18424 -0.0107,0.199061 0.0253,0.399946 0.003,0.598045 -0.0697,0.618792 -0.2136,1.226992 -0.31294,1.841722 -0.002,0.0151 -8e-4,-0.0307 -2.3e-4,-0.046 0.0129,-0.368125 0.0332,-0.736034 0.0405,-1.10431 0.007,-0.373602 0.11667,-1.554533 -0.28487,-1.792769 -0.1974,-0.117121 -0.35781,0.34404 -0.64064,0.693229 -0.25971,0.32063 -0.53321,0.630958 -0.82352,0.924156 -0.0629,0.06354 -0.14616,0.171942 -0.22934,0.139144 -0.0713,-0.02812 0.008,-0.153855 -0.001,-0.230016 -0.0852,-0.733583 -0.19578,-1.506577 -0.56271,-2.159436 -0.0427,-0.07601 -0.23705,-0.27296 -0.36916,-0.228198 -0.13702,0.04642 -0.25658,0.138237 -0.3669,0.231833 -0.0227,0.01924 -1.01506,1.0882 -1.28241,1.156441 -0.0149,0.0038 0.003,-0.03098 -2.3e-4,-0.046 -0.016,-0.07817 -0.19335,-0.959538 -0.28147,-1.102717 -0.35314,-0.573768 -0.54535,-0.776973 -1.24527,-0.637919 -0.24897,0.04946 -0.46088,0.213019 -0.68846,0.32543 -0.39967,0.197408 -0.79075,0.412157 -1.19314,0.603949 -0.11827,0.05637 -0.24325,0.09778 -0.36734,0.139827 -0.0145,0.0049 -0.0442,0.01545 -0.046,2.27e-4 -0.0244,-0.210362 0.13537,-1.988484 -0.009,-1.88614 -2.36329,1.671743 -0.33504,0.412003 -2.38377,1.713933 -0.17981,0.114261 -0.37262,0.442045 -0.55046,0.32475 -0.0699,-0.04611 0.54298,-1.55974 0.0834,-1.748584 -0.4534,-0.186298 -0.80832,0.300443 -1.05535,0.557263 -0.32402,0.336854 -0.59147,0.725152 -0.91485,1.06262 -0.54254,0.566192 -0.50363,0.489029 -0.50626,-0.04351 -0.002,-0.502682 0.019,-0.662797 -0.0979,-1.195633 -0.005,-0.02119 -0.0422,0.02484 -0.0458,0.04623 -0.0567,0.335733 -0.076,0.677082 -0.13301,1.012757 -0.0998,0.587076 -0.25577,1.163542 -0.3594,1.749943 -0.005,0.0302 5.3e-4,0.122677 5.3e-4,0.09201 -0.003,-0.617437 -0.47353,-1.702586 -0.65472,-2.158981 -0.10632,-0.26778 -0.20551,-0.545029 -0.37189,-0.780241 -0.0594,-0.08398 -0.23384,-0.230164 -0.2767,-0.136649 -0.20304,0.443034 -0.20775,0.952299 -0.31499,1.427697 -0.20171,0.894231 -0.23654,1.052311 -0.4965,1.934638 -0.004,0.01471 -1.5e-4,-0.03067 -2.2e-4,-0.046 -0.001,-0.260686 -0.003,-0.521372 -0.004,-0.782058 -0.005,-1.029689 0.007,-0.692219 -0.0553,-1.88591 -0.002,-0.04594 -0.0115,0.09365 7.9e-4,0.138009 0.0976,0.355516 0.21409,0.705615 0.32725,1.056489 0.18683,0.579303 0.25588,0.985825 0.69709,1.422699 0.0345,0.03412 0.0399,-0.09005 0.0453,-0.138237 0.0241,-0.213881 0.0439,-0.429045 0.0428,-0.644276 -0.002,-0.414313 -0.0304,-0.828117 -0.0521,-1.241864 -0.0121,-0.230211 -0.0339,-0.459817 -0.0494,-0.689824 -0.001,-0.01529 -0.005,-0.06053 -2.3e-4,-0.046 0.39608,1.168968 0.20512,0.657248 0.56181,1.975421 0.10399,0.384289 0.204,0.770088 0.3277,1.148495 0.0172,0.05255 0.0597,0.181952 0.0927,0.137557 0.17085,-0.230163 -0.12852,-0.934794 -0.18969,-1.149178 -0.13987,-0.490183 -0.25772,-0.987276 -0.4213,-1.470064 -0.0705,-0.207947 -0.17981,-0.400789 -0.27897,-0.596681 -0.01,-0.01934 -0.0433,-0.06726 -0.0462,-0.04578 -0.10752,0.780087 -0.1619,1.566781 -0.26444,2.347537 -0.0443,0.337584 -0.0907,0.674918 -0.13302,1.012756 -0.002,0.01521 -0.0151,0.04608 2.3e-4,0.046 0.0153,-7.7e-5 0.002,-0.03081 -2.3e-4,-0.046 -0.0297,-0.214818 -0.0708,-0.428104 -0.0952,-0.643594 -0.0398,-0.351784 -0.0591,-0.705659 -0.0972,-1.057624 -0.0101,-0.09273 0.0182,-0.342074 -0.0474,-0.275794 -0.0755,0.07628 -0.0241,0.217805 0.002,0.322025 0.0848,0.343731 0.22124,0.672631 0.32702,1.010486 0.14351,0.458351 0.27296,0.921096 0.42084,1.378046 0.0702,0.2169 0.12493,0.4423 0.2332,0.64292 0.023,0.0427 0.12896,0.0929 0.13823,0.0453 0.0469,-0.24082 -0.002,-0.4907 -0.004,-0.73605 -0.008,-1.530986 0.0428,-0.288982 -0.28851,-2.528822 -0.40146,-2.714464 0.0702,0.382717 -0.0988,-1.379649 -0.002,-0.01527 -0.0461,-0.01511 -0.046,2.27e-4 10e-4,0.291759 10e-4,0.586285 0.0503,0.873837 0.046,0.267811 0.14668,0.523563 0.23388,0.780923 0.10737,0.316873 0.15852,0.560168 0.46026,0.04373 0.13219,-0.226253 0.18548,-0.490212 0.27239,-0.737417 0.11574,-0.329192 0.4163,-1.307608 0.63542,-1.751309 0.007,-0.01376 0.0414,-0.01484 0.046,-2.25e-4 0.0697,0.219091 0.64048,2.871536 1.25595,2.800075 0.19506,-0.02265 0.25882,-0.297138 0.36575,-0.461852 0.18821,-0.289909 0.74168,-1.234773 0.91189,-1.660662 0.13859,-0.346755 0.2503,-0.703826 0.36281,-1.059895 0.0236,-0.07456 0.0155,-0.302699 0.0449,-0.230245 0.0882,0.217365 0.092,0.460068 0.14141,0.689372 0.0133,0.0618 0.009,0.133392 0.0469,0.183784 0.21063,0.277961 0.65609,-1.814054 0.86658,-1.522425 0.0902,0.124962 0.0204,0.308231 0.0483,0.459806 0.0369,0.201149 0.4107,1.866731 0.51535,1.883643 0.0677,0.01095 0.14133,-0.03888 0.18356,-0.09292 0.46955,-0.600842 0.86102,-1.36059 1.32433,-1.984729 0.009,-0.0123 -0.002,0.03081 2.3e-4,0.046 0.0297,0.214818 0.0416,0.433464 0.0952,0.643594 0.0408,0.160027 0.11169,0.311769 0.18628,0.459126 0.054,0.106656 1.03106,-0.416846 1.05626,-0.373251 0.19487,0.337154 0.25136,1.8673 0.88269,1.743814 0.69117,-0.135189 1.26398,-0.578202 1.92829,-0.791594 0.0584,-0.01876 0.15835,-0.05662 0.18401,-7.94e-4 0.0708,0.153847 0.0209,0.338693 0.0485,0.505809 0.0358,0.216628 0.0814,0.43211 0.14119,0.643367 0.17109,0.604321 1.00323,-0.330108 1.28582,-0.466392 0.17472,-0.08426 0.36397,-0.135835 0.55114,-0.186738 0.0444,-0.01206 0.12164,-0.04368 0.13801,-7.93e-4 0.11149,0.29292 0.27026,1.758486 0.28533,1.884777 0.0182,0.153025 -0.01,0.317003 0.0483,0.459807 0.0408,0.100419 0.16961,-0.01783 0.36712,-0.185831 0.21538,-0.1832 0.42337,-0.375089 0.64132,-0.55522 0.11821,-0.09769 0.2431,-0.187031 0.36667,-0.277836 0.0445,-0.03274 0.11258,-0.142018 0.13755,-0.09269 0.0554,0.109456 0.001,0.245351 0.002,0.368028 8e-4,0.184015 0.002,0.368027 0.003,0.552039 10e-4,0.287129 0.0699,0.867564 0.006,1.196081 -0.003,0.0151 -0.0307,1.5e-4 -0.046,2.3e-4 -0.015,0.0614 -0.0419,0.1211 -0.0451,0.18424 -0.0208,0.41056 0.0871,0.82529 0.0519,1.19586 -0.018,0.18919 -0.13658,0.2904 -0.13574,0.46072"
       id="path9033" />
    <path
       style="fill:none;stroke:#803300;stroke-width:0.264583px;stroke-linecap:butt;stroke-linejoin:miter;stroke-opacity:1"
       d="m 159.46549,96.006382 c 0.66876,-0.194649 1.51926,-0.451022 2.11388,-0.47048 0.51407,-0.01683 1.01463,0.170149 1.51948,0.268529 0.83261,0.162253 1.67492,0.294319 2.4869,0.539779 0.82185,0.248441 0.78424,0.331673 1.4762,0.820795 0.10096,0.07136 0.23594,0.270275 0.32293,0.182423 0.20522,-0.207254 -0.72099,-0.960665 -0.78705,-1.008214 -0.51696,-0.372086 -1.20082,-0.591478 -1.79777,-0.727199 -0.23971,-0.0545 -0.49065,-0.03242 -0.73628,-0.04237 -0.10834,-0.0044 -0.34861,-0.05747 -0.3218,0.04759 0.15927,0.623943 0.42895,1.224653 0.92825,1.651582 0.20849,0.178268 0.68172,0.632899 0.73787,0.364392 0.0573,-0.273836 -0.0358,-0.81897 -0.0514,-1.103855 -0.0118,-0.21436 -0.002,-0.429363 -0.003,-0.644046 -7.9e-4,-0.138277 -0.0124,-0.0934 0.2307,0.136874 0.48545,0.459777 0.99666,1.165074 1.70871,1.325698 0.0748,0.01688 0.17136,0.04824 0.23002,-0.0011 0.0598,-0.05035 0.0417,-0.152117 0.0449,-0.230245 0.0105,-0.260475 -0.003,-0.52137 -0.004,-0.782056 -1.5e-4,-0.03067 0.0302,-0.09216 -5.3e-4,-0.09201 -0.0278,1.38e-4 0.0296,0.232604 0.095,0.597591 0.13189,0.736782 0.007,0.433829 0.41971,1.14804 0.0109,0.01879 0.0264,0.05442 0.0462,0.04578 0.10142,-0.04406 0.17645,-0.135437 0.27511,-0.185377 0.30238,-0.153056 1.16579,-0.402132 1.42543,-0.145047 0.37388,0.370205 0.45916,1.008734 0.65131,1.468929 0.0344,0.08251 0.0944,0.151921 0.13915,0.229336 0.0171,0.02969 0.0313,0.122523 0.0464,0.09178 0.0272,-0.055 0.004,-0.12288 -7.9e-4,-0.184012 -0.0549,-0.67001 -0.21861,-1.436436 -0.65381,-1.974969 -0.0431,-0.05334 -0.0788,0.117004 -0.0911,0.18447 -0.14968,0.820679 0.0178,0.38907 -0.45367,1.290365 -0.0101,0.01921 -0.0241,0.04612 -0.0458,0.04623 -0.0154,7.4e-5 0.005,-0.03162 -2.3e-4,-0.046 -0.0572,-0.154938 -0.11169,-0.31177 -0.18628,-0.459127 -0.0962,-0.190074 -0.20867,-0.371821 -0.32475,-0.550452 -0.45301,-0.697092 -0.80861,-1.176258 -1.48074,-1.740863 -0.29006,-0.24366 -0.92084,-0.465706 -1.28923,-0.223658 -0.21824,0.143397 -0.39478,0.341988 -0.59554,0.50899 -0.0688,0.05718 -0.1658,0.20206 -0.22934,0.139144 -0.0755,-0.07478 -0.32535,-0.673126 -0.41812,-0.826016 -0.0287,-0.04727 -0.0486,-0.17095 -0.0927,-0.137557 -0.28941,0.2193 -0.26709,0.609984 -0.77797,0.831922 -0.17582,0.07638 -0.23716,-0.276606 -0.27761,-0.320662 -0.12747,-0.138845 -0.68563,-0.381735 -0.7841,-0.41017 -0.45798,-0.132247 -0.89323,0.185735 -1.2865,0.328382 -0.3559,0.12909 -0.42086,-0.295539 -0.60054,-0.503087 -0.0172,-0.01984 -0.3759,-0.408291 -0.50763,-0.319524 -0.0636,0.04284 -0.0852,0.128252 -0.1371,0.184693 -0.18327,0.199332 -0.51001,0.613825 -0.82466,0.694139 -0.15003,0.03829 -0.10614,-0.371792 -0.2316,-0.320889 -0.14692,0.05961 -0.39877,1.021239 -0.54818,0.784783 -0.066,-0.104515 -0.12029,-0.216143 -0.18561,-0.321114 -0.0876,-0.140835 -0.1602,-0.295963 -0.27806,-0.41267 -0.0109,-0.0108 0.002,0.03074 2.2e-4,0.046 -0.0131,0.138237 -0.019,0.277649 -0.044,0.414256 -0.14469,0.516075 -0.0509,0.125256 -0.13483,0.644729 -0.002,0.01513 -0.005,-0.03143 -2.2e-4,-0.046 0.0649,-0.197799 0.23118,-1.03311 0.36325,-0.967888 0.0186,0.0092 0.50749,0.507841 0.55363,0.319299 0.0995,-0.406609 -0.4469,0.226219 -0.55067,0.278747 -0.10171,0.05148 -0.10588,-0.194723 -0.14028,-0.459354 -0.002,-0.01521 0.0151,-0.04608 -2.3e-4,-0.046 -0.0154,7.7e-5 -0.008,0.03304 2.3e-4,0.046 0.52446,0.830003 1.0071,0.652785 2.07356,0.679834 0.52121,0.01323 1.04391,0.02737 1.56411,-0.0077 6.75145,-0.455433 -0.1187,-0.0838 2.85062,-0.336103 0.13752,-0.01169 0.27602,-0.0013 0.41403,-0.0021 0.0307,-1.5e-4 0.0723,-0.02392 0.092,-5.29e-4 0.38364,0.455779 0.60515,1.005946 1.20222,1.236189 0.79286,0.305747 1.21736,-0.166015 1.97792,-0.05577 0.25476,0.03693 0.47775,0.400045 0.60099,0.595093 0.0773,0.122299 0.0986,0.310563 0.23184,0.366893 0.21464,0.09074 0.44936,-0.174591 0.45935,-0.140282 0.10597,0.364101 0.0582,0.960868 -0.0397,1.288322 -0.0573,0.191561 -0.17884,0.365554 -0.31952,0.507625 -0.0489,0.0494 -0.0923,-0.0649 -0.0918,0.0465"
       id="path9068" />
    <path
       style="fill:#c83737;stroke:#d35f5f;stroke-width:0.332387px;stroke-linecap:butt;stroke-linejoin:miter;stroke-opacity:1"
       d="m 137.4202,38.337857 -18.51772,5.098074 13.6857,-11.858323 -9.81316,-10.289525 c 0,0 -46.307717,52.310985 -44.987062,51.739328 1.32065,-0.57166 65.569832,-21.958663 65.569832,-21.958663 z"
       id="path9362" />
    <path
       style="fill:#2a2aff;stroke:#000000;stroke-width:0.332387px;stroke-linecap:butt;stroke-linejoin:miter;stroke-opacity:1"
       d="M 77.881401,73.891515 144.14634,55.187823 145.75816,90.19793 Z"
       id="path9459" />
    <path
       style="fill:#37abc8;stroke:#000000;stroke-width:0.332387px;stroke-linecap:butt;stroke-linejoin:miter;stroke-opacity:1"
       d="M 77.881398,73.891515 144.52044,93.705681 129.61033,124.41815 77.881398,73.891515"
       id="path9562" />
    <path
       style="fill:#7fff2a;stroke:#000000;stroke-width:0.332387px;stroke-linecap:butt;stroke-linejoin:miter;stroke-opacity:1"
       d="M 77.881398,73.891515 83.649508,150.55285 128.01215,127.57747 77.881398,73.891515"
       id="path9597" />
    <path
       style="fill:#ffd42a;stroke:#000000;stroke-width:0.332387px;stroke-linecap:butt;stroke-linejoin:miter;stroke-opacity:1"
       d="M 77.881398,73.891515 78.807174,150.57619 36.945277,136.0704 77.881398,73.891515"
       id="path9664" />
    <path
       style="fill:#ff2a7f;stroke:#000000;stroke-width:0.332387px;stroke-linecap:butt;stroke-linejoin:miter;stroke-opacity:1"
       d="M 77.881398,73.891515 34.058041,132.58252 10.715304,91.724103 77.881398,73.891515"
       id="path9699" />
    <path
       style="fill:#7f2aff;stroke:#000000;stroke-width:0.332387px;stroke-linecap:butt;stroke-linejoin:miter;stroke-opacity:1"
       d="M 77.881398,73.891515 8.1841049,87.70925 13.903332,48.286582 77.881398,73.891515"
       id="path9767" />
    <path
       style="fill:#5f5fd3;stroke:#000000;stroke-width:0.332387px;stroke-linecap:butt;stroke-linejoin:miter;stroke-opacity:1"
       d="M 15.139275,44.428662 77.881398,73.891515 47.261263,12.582703 Z"
       id="path9802" />
    <path
       style="fill:#e3dedb;stroke:#000000;stroke-width:0.332387px;stroke-linecap:butt;stroke-linejoin:miter;stroke-opacity:1"
       d="M 50.83844,10.639483 77.881398,73.891515 81.835139,4.5370819 50.659094,10.640348"
       id="path9874" />
    <path
       style="fill:#800000;stroke:#000000;stroke-width:0.332387px;stroke-linecap:butt;stroke-linejoin:miter;stroke-opacity:1"
       d="M 85.784285,5.2184095 77.881398,73.891515 119.21604,19.589727 Z"
       id="path9909" />
    <path
       style="fill:#ffb380;fill-opacity:1;stroke:#d35f5f;stroke-width:0.14333;stroke-opacity:0"
       d="m 105.06541,200.85685 c 0.0422,-0.34065 0.13113,-2.42196 0.19765,-4.62512 0.0665,-2.20316 0.21468,-4.69438 0.32927,-5.53605 0.11458,-0.84165 0.20615,-2.28397 0.20348,-3.20514 -0.003,-0.92116 0.083,-2.72391 0.19047,-4.0061 0.10742,-1.2822 0.25712,-3.64235 0.33268,-5.24478 0.22041,-4.67491 0.88769,-8.97597 1.93341,-12.46219 0.51751,-1.72524 2.52813,-6.85808 2.68529,-6.85514 0.0849,0.002 1.14037,0.451 2.34551,0.9987 l 2.19117,0.9958 0.0497,0.7732 c 0.0724,1.12518 -0.18592,3.0941 -0.86761,6.61377 -0.33099,1.70891 -0.65704,3.78297 -0.72456,4.60906 -0.14884,1.82086 -0.008,23.76048 0.16603,25.85898 l 0.12373,1.49218 -0.52313,0.003 c -0.28772,0.001 -0.65779,0.078 -0.82238,0.16999 -0.16735,0.0935 -1.48388,0.22645 -2.98678,0.30145 -2.07363,0.10348 -2.89144,0.20285 -3.58026,0.435 -1.28691,0.43375 -1.33507,0.42151 -1.2437,-0.31629 z"
       id="path10295" />
    <path
       style="fill:#ffb380;fill-opacity:1;stroke:#d35f5f;stroke-width:0.14333;stroke-opacity:0"
       d="m 223.6534,183.73367 c -0.25524,-0.22952 -1.91132,-1.49332 -3.68015,-2.80844 -1.76884,-1.31512 -3.72719,-2.86204 -4.35193,-3.4376 -0.6247,-0.57553 -1.75521,-1.47587 -2.51223,-2.00074 -0.75718,-0.5246 -2.18648,-1.62661 -3.17656,-2.44837 -0.99013,-0.82173 -2.84011,-2.29491 -4.1111,-3.27374 -3.70795,-2.85559 -6.85361,-5.86378 -9.11447,-8.71611 -1.11883,-1.41155 -4.17806,-5.99737 -4.08573,-6.12459 0.0503,-0.0685 1.02236,-0.67721 2.1611,-1.35221 l 2.07041,-1.2273 0.66256,0.40164 c 0.96423,0.5844 2.43121,1.92282 4.92779,4.49573 1.21216,1.24925 2.72662,2.70336 3.3655,3.2314 1.40818,1.1639 19.48227,13.60151 21.3029,14.65947 l 1.29459,0.75231 -0.29686,0.43075 c -0.1638,0.23655 -0.3124,0.58411 -0.33112,0.77173 -0.0195,0.19071 -0.66331,1.34655 -1.46171,2.62204 -1.10159,1.75988 -1.48802,2.48745 -1.69174,3.18521 -0.3806,1.30361 -0.41819,1.3361 -0.97101,0.83903 z"
       id="path10295-6" />
  </g>
</svg>
